<svg version="1.1" id="Layer_1" xmlns="http://www.w3.org/2000/svg" xmlns:xlink="http://www.w3.org/1999/xlink" x="0px" y="0px"
	 width="100%" viewBox="0 0 1080 1080" enable-background="new 0 0 1080 1080" xml:space="preserve">
<path fill="#010000" opacity="1.000000" stroke="none" 
	d="
M1.000000,652.000000 
	C1.000000,435.037903 1.000000,218.075821 1.000000,1.056865 
	C360.899200,1.056865 720.798401,1.056865 1081.000000,1.056865 
	C1081.000000,217.694611 1081.000000,434.389343 1080.541992,651.542725 
	C720.389404,652.000854 360.694702,652.000427 1.000000,652.000000 
M791.678833,354.347168 
	C791.445618,354.716431 791.212402,355.085663 790.865356,355.663330 
	C790.865356,355.663330 790.643250,355.747284 790.353821,355.332336 
	C790.230713,355.217133 790.107544,355.101898 790.043579,354.143341 
	C788.133118,353.985077 786.139404,353.391937 784.325867,353.739502 
	C773.064575,355.897522 761.867920,358.396820 750.596619,360.496826 
	C746.517273,361.256805 742.397217,361.536865 740.489685,356.086548 
	C739.831726,354.206512 737.632446,351.201080 734.195984,354.969635 
	C732.069824,354.502106 729.793518,353.290955 727.841248,353.684937 
	C712.416748,356.797699 697.355347,362.256042 681.193115,360.355560 
	C680.296875,360.250183 678.760315,361.087189 678.437012,361.865631 
	C678.106873,362.660583 678.615234,364.165985 679.259949,364.942261 
	C682.469238,368.806641 686.931885,369.693024 691.481140,368.733032 
	C697.963074,367.365295 704.337708,365.456970 710.711975,363.619446 
	C716.891174,361.838165 723.011963,359.854553 729.076965,358.679504 
	C728.208557,359.416504 727.404907,360.251282 726.461914,360.875671 
	C714.948364,368.499054 703.224365,375.822906 691.956299,383.791870 
	C685.114441,388.630524 678.834412,393.893616 674.314270,401.673462 
	C670.491760,408.252563 663.942749,413.681580 654.757141,414.908386 
	C654.723328,408.594513 657.611816,403.938507 660.394287,399.332977 
	C664.006836,393.353546 668.063660,387.636475 671.524109,381.575195 
	C672.490112,379.883209 673.005249,376.519226 672.031494,375.407196 
	C669.413513,372.417603 665.879395,370.230286 662.352844,367.442902 
	C660.720764,370.446259 659.619995,372.445892 658.542908,374.458191 
	C653.604736,383.684052 648.363953,392.765289 643.848450,402.193756 
	C640.849426,408.455719 640.821472,415.084259 644.863220,421.261017 
	C647.363220,425.081696 650.922913,426.323425 654.755737,424.192230 
	C659.217651,421.711182 663.439331,418.672913 667.370178,415.401733 
	C670.476379,412.816833 672.985168,409.514008 675.332947,406.988495 
	C678.701172,409.646790 681.230774,411.643280 683.691833,413.585632 
	C688.251099,408.913452 694.806702,407.144928 701.641113,408.307220 
	C708.615173,409.493286 712.928955,415.214233 712.343079,422.233582 
	C712.059021,425.637695 710.653992,427.212372 707.124939,428.219910 
	C698.357056,430.723053 689.642578,433.584534 681.224060,437.068909 
	C676.865356,438.872955 672.925781,442.003906 669.263184,445.089050 
	C665.443115,448.306915 665.304688,451.316895 667.780396,454.419128 
	C677.172302,441.859314 691.540161,440.249725 705.242310,437.100159 
	C697.637939,447.391571 688.645081,455.803162 676.529541,460.196655 
	C672.107422,461.800262 667.922424,461.219177 664.702637,457.448792 
	C663.872925,456.477234 663.542969,455.078918 662.983459,453.876617 
	C660.460754,458.652069 661.518799,461.592133 665.413269,463.968567 
	C672.753662,468.447723 680.788086,468.496643 688.586853,465.955353 
	C702.990906,461.261627 713.644287,451.877808 720.639343,438.380432 
	C721.292542,437.119873 722.240417,435.159180 723.212402,435.057220 
	C728.829224,434.468018 734.494385,434.339691 740.143188,434.055328 
	C740.236084,434.574829 740.328918,435.094360 740.421753,435.613892 
	C739.049622,436.330383 737.571777,436.899078 736.324951,437.790741 
	C732.418396,440.584473 728.334717,443.215332 724.835083,446.464447 
	C722.337158,448.783539 721.206360,452.001862 724.527710,455.057983 
	C731.227112,445.551361 753.628113,435.354614 761.320312,438.494843 
	C755.371399,446.350372 748.275330,452.795990 739.690613,457.299591 
	C730.630554,462.052521 726.148560,463.343262 718.907410,455.183075 
	C718.796326,455.057922 718.331055,455.247101 717.820374,455.319458 
	C716.448425,458.941162 718.534363,461.273773 721.099548,463.229675 
	C726.973083,467.708160 733.806091,468.128601 740.662659,466.885437 
	C755.072815,464.272705 767.086670,456.552399 773.532898,443.915131 
	C778.497192,434.183075 785.185425,433.752808 793.585266,434.236053 
	C795.616821,434.352936 797.613098,435.083130 800.640137,435.757263 
	C798.962280,432.716309 797.672607,430.378998 796.426575,428.120697 
	C809.898254,421.391052 817.049805,408.584747 827.179749,397.186462 
	C826.842407,400.113922 826.804749,401.922394 826.402771,403.645905 
	C825.289612,408.418182 826.770691,412.043396 830.627075,415.024414 
	C834.382324,417.927246 838.369141,418.289703 842.281494,416.049500 
	C845.840637,414.011627 849.457947,411.724915 852.261902,408.794250 
	C857.510803,403.308258 862.189819,397.277008 867.324402,391.214569 
	C866.411743,390.588348 865.921448,390.210815 865.392334,389.899261 
	C864.711548,389.498230 863.999573,389.150146 863.323975,388.791443 
	C855.432251,396.679596 851.059937,408.024780 838.045715,412.078094 
	C838.937073,408.962036 839.229492,407.037720 840.019531,405.345795 
	C842.475586,400.085999 845.215820,394.958740 847.662476,389.694855 
	C849.699890,385.311584 846.934082,382.855286 843.627991,380.797974 
	C840.460571,378.827026 837.643311,377.669678 834.597229,381.559875 
	C828.338501,389.552887 821.759949,397.303070 815.122681,404.988831 
	C812.058533,408.537018 808.547363,411.699219 805.238831,415.036438 
	C804.747437,414.767456 804.256042,414.498474 803.764648,414.229462 
	C804.101501,412.274078 804.085999,410.171478 804.831726,408.386932 
	C810.129395,395.708801 818.560852,385.268188 828.713318,376.208618 
	C829.948120,375.106781 832.488525,375.381622 834.440735,375.203217 
	C835.580200,375.099152 836.753235,375.361908 837.911133,375.459656 
	C837.726257,374.239990 837.945984,372.716492 837.293640,371.847870 
	C831.044128,363.526123 824.549805,360.956116 817.361389,367.902618 
	C811.163208,373.892120 804.548950,379.842682 799.925903,386.980927 
	C792.532654,398.396362 779.661560,408.845886 789.422302,425.205078 
	C786.451355,425.205078 783.870728,425.205078 781.058411,425.205078 
	C780.775269,416.722046 776.799255,410.530121 769.809143,406.735718 
	C763.133667,403.112122 755.714905,402.682465 748.023743,403.944092 
	C751.340271,400.638123 754.661438,397.654877 758.292969,395.115448 
	C770.704895,386.436096 783.285400,377.997498 795.677124,369.289948 
	C800.964783,365.574432 800.906250,358.413757 795.720886,354.452759 
	C794.948669,353.862885 793.463196,354.206818 791.678833,354.347168 
M549.908020,423.802185 
	C550.104980,424.017242 550.302002,424.232269 550.478577,425.167114 
	C547.219238,432.628143 544.018982,440.115723 540.683838,447.542694 
	C537.351440,454.963562 539.445740,459.224854 547.463989,460.905121 
	C550.651794,461.573151 553.398499,461.743103 553.809387,457.157562 
	C553.991943,455.120209 555.177185,453.039124 556.323364,451.243408 
	C563.656311,439.754486 570.806580,428.132172 578.580872,416.945587 
	C592.468140,396.962708 607.646790,377.989075 625.034973,360.894104 
	C627.616028,358.356567 630.805359,356.437775 633.713257,354.232697 
	C634.097717,354.551422 634.482117,354.870117 634.866577,355.188843 
	C634.648926,356.938751 634.786743,358.830963 634.152832,360.414246 
	C631.198914,367.791473 628.394775,375.263855 624.862244,382.366608 
	C618.305115,395.551117 610.158813,407.691193 599.169739,417.695801 
	C593.661011,422.711060 590.316711,422.658539 585.437622,417.625061 
	C584.816956,419.764893 583.926575,422.709900 584.995728,423.911896 
	C587.493042,426.719513 590.614685,429.749146 594.054993,430.778351 
	C601.149170,432.900604 607.310608,429.813782 612.802124,425.135651 
	C622.987854,416.458649 630.267151,405.646545 636.685364,394.057404 
	C642.387024,383.761902 646.670471,373.073029 647.887756,361.300140 
	C648.489929,355.476044 645.721069,351.360596 640.878357,348.544189 
	C636.479065,345.985657 632.156433,345.616486 628.098694,349.448395 
	C626.291260,351.155243 624.020264,352.406586 622.362366,354.230591 
	C610.284973,367.517883 598.318604,380.905884 586.291748,394.239197 
	C584.906799,395.774567 583.366089,397.169403 581.897583,398.629395 
	C581.513611,398.263489 581.129639,397.897583 580.745667,397.531677 
	C585.501892,389.069214 590.012329,380.455536 595.095886,372.194458 
	C598.832581,366.122131 598.431458,364.177917 591.583679,362.025146 
	C587.146973,360.630341 583.364014,360.737213 581.399353,365.930695 
	C580.817993,367.467438 579.697754,368.790985 578.982788,370.287903 
	C569.849304,389.411011 556.152771,405.328918 542.837952,421.486481 
	C539.919617,425.027863 536.104187,427.830017 532.701904,430.972595 
	C532.161072,430.611511 531.620178,430.250427 531.079285,429.889343 
	C531.364746,427.871246 531.244934,425.684479 532.002869,423.862976 
	C536.203430,413.768158 540.335754,403.626526 545.076477,393.782684 
	C547.472534,388.807343 545.362488,385.796448 542.105713,382.948212 
	C538.707581,379.976379 534.940552,377.668365 530.664368,381.643646 
	C524.091064,387.754425 517.541138,393.890717 511.018616,400.055634 
	C507.527374,403.355469 504.114319,406.737946 500.088257,410.643616 
	C500.203674,409.234863 500.096558,408.708832 500.297272,408.359741 
	C505.494476,399.319885 510.696838,390.282623 515.987488,381.297424 
	C516.536011,380.365906 517.566833,379.649231 518.502991,379.027100 
	C522.382263,376.449066 526.655518,374.345642 530.153137,371.334930 
	C538.453674,364.189941 546.655334,356.886169 554.366699,349.120056 
	C557.951294,345.510071 556.385925,342.636688 551.676575,342.163300 
	C546.848145,352.821594 537.547668,358.722382 528.081604,364.218170 
	C527.925110,364.016479 527.768555,363.814758 527.766846,362.948822 
	C530.613953,359.053375 533.250610,354.980774 536.350403,351.298004 
	C543.630981,342.648376 549.538391,332.441406 561.308289,328.833710 
	C557.769043,320.551147 548.914124,317.777710 542.137512,322.733582 
	C539.605530,324.585266 537.239014,326.753540 535.131409,329.080353 
	C521.673767,343.937561 510.179169,360.228821 499.903595,377.422150 
	C498.498383,379.773376 496.197083,381.589081 494.773499,383.146484 
	C493.735657,385.800476 493.348969,388.368256 491.935120,390.094971 
	C488.355438,394.466827 484.487091,398.639404 480.423523,402.570526 
	C471.087982,411.601654 461.835297,420.865875 449.707092,426.177216 
	C446.580688,427.546387 442.793579,427.406891 439.309998,427.960449 
	C439.412567,424.480927 438.676178,420.711212 439.762054,417.571808 
	C444.627625,403.504456 453.164703,391.649414 463.501892,381.099030 
	C465.786804,378.767029 468.710663,376.937073 471.616943,375.398468 
	C472.796448,374.773956 474.994141,375.107361 476.182190,375.863403 
	C476.795197,376.253510 476.638123,378.717529 476.096771,379.912903 
	C473.264771,386.166351 469.996368,392.132690 462.820587,394.478760 
	C466.507019,399.976501 470.481567,401.189178 474.616699,396.964111 
	C478.689270,392.802948 482.181580,387.774658 484.714722,382.539490 
	C485.881165,380.128784 485.263336,375.414154 483.543518,373.295685 
	C475.920288,363.905518 468.651581,361.688324 458.442261,368.089905 
	C448.766571,374.156799 441.160919,382.307831 435.707428,392.177551 
	C431.820953,399.211273 428.164429,406.641968 426.125244,414.350555 
	C424.089996,422.044464 428.948608,427.921753 434.943909,432.562134 
	C440.106201,436.557831 445.673553,435.511932 450.457153,432.685333 
	C458.138031,428.146759 465.440491,422.908813 472.582550,417.540253 
	C476.587006,414.530182 479.947449,410.663361 483.860046,406.932709 
	C484.498871,418.797607 486.874237,422.642303 493.877350,424.499603 
	C503.602661,414.310120 513.121277,404.337189 522.789673,395.296173 
	C522.916382,395.584137 523.043152,395.872101 523.092224,396.930389 
	C522.644958,398.861694 522.291504,400.820496 521.734070,402.719482 
	C519.353821,410.828156 516.757568,418.876831 514.545532,427.030273 
	C512.847229,433.290192 515.629150,438.443115 522.065369,442.186127 
	C527.189575,445.166107 531.154724,442.595062 534.527039,439.216217 
	C539.680420,434.052917 544.442810,428.499298 549.908020,423.802185 
M293.952423,398.864594 
	C294.159058,399.072449 294.365723,399.280334 294.454865,400.190430 
	C292.908844,403.860901 291.081696,407.445892 289.928711,411.235931 
	C289.299133,413.305389 289.116119,416.013092 289.920776,417.935150 
	C295.193939,430.531219 305.301270,432.932251 315.560577,424.218079 
	C317.587189,422.496735 319.468536,420.589722 321.300232,418.657715 
	C323.074310,416.786469 324.698181,414.772766 327.068115,412.036346 
	C327.894806,415.513702 328.209137,417.626648 328.900909,419.607849 
	C331.791107,427.885162 337.698547,430.285339 344.036407,424.579926 
	C351.522217,417.841156 357.886993,409.854645 364.708008,402.381836 
	C366.116943,400.838287 367.394836,399.175140 368.733093,397.567108 
	C369.430084,399.501251 369.428436,400.860168 369.017853,402.081635 
	C367.117004,407.736633 368.586212,412.149353 373.494171,415.564270 
	C378.474335,419.029480 383.044281,417.284851 387.415680,414.505554 
	C390.398163,412.609314 393.107056,410.282715 397.076111,407.290833 
	C396.454376,410.107697 395.894623,411.626465 395.817841,413.169250 
	C395.499115,419.572296 394.497498,426.094452 395.342987,432.357361 
	C396.120117,438.113831 403.092651,442.184814 407.510376,440.967987 
	C404.709259,432.153137 407.618073,423.757385 410.308685,415.727753 
	C419.325165,388.819550 432.303375,363.786652 447.446716,339.810089 
	C450.101166,335.607300 452.608612,334.128723 457.417572,335.596375 
	C463.289398,337.388458 469.332825,338.647980 475.345490,339.934814 
	C477.918671,340.485535 480.428162,340.481903 480.503540,336.599365 
	C480.625275,330.330109 475.227570,324.234100 468.937714,323.940552 
	C465.880524,323.797852 462.811218,323.915863 459.747375,323.915863 
	C459.574524,323.450928 459.401672,322.985992 459.228821,322.521027 
	C463.578278,317.364136 468.069427,312.316315 472.180969,306.976196 
	C473.252960,305.583923 474.058319,302.857422 473.416718,301.468964 
	C470.549774,295.264709 462.183990,293.674713 457.657837,298.672058 
	C451.534241,305.433258 445.779449,312.567596 440.355804,319.903625 
	C438.307739,322.673828 436.354095,323.641266 433.046936,323.763275 
	C418.401520,324.303619 403.765656,325.115753 389.131134,325.917725 
	C387.491730,326.007568 385.882996,326.657013 384.260040,327.046936 
	C384.269928,327.745392 384.279846,328.443817 384.289734,329.142273 
	C399.767212,331.555450 415.670441,330.350067 431.747955,333.046112 
	C430.392883,335.461060 429.191986,337.403625 428.178192,339.439331 
	C420.482269,354.892883 412.517029,370.223053 405.267670,385.884186 
	C400.954193,395.202789 394.759308,402.734589 386.995789,409.133057 
	C385.449982,410.407104 383.219940,410.850952 381.305420,411.677612 
	C380.869934,411.193176 380.434448,410.708771 379.998962,410.224335 
	C383.008606,403.817566 385.923706,397.364044 389.059479,391.019623 
	C391.339203,386.407196 390.687195,384.058289 385.698792,380.731018 
	C381.399841,377.863678 379.222900,378.234406 375.940338,382.284180 
	C370.386017,389.136627 364.915161,396.062042 359.182526,402.762787 
	C355.492004,407.076538 351.396271,411.043610 347.482117,415.166016 
	C346.905731,414.841217 346.329376,414.516388 345.752991,414.191589 
	C346.229065,411.914948 346.289490,409.443604 347.249786,407.393799 
	C352.824005,395.494720 360.560181,385.158020 370.421051,376.444153 
	C372.376495,374.716156 374.335876,373.223877 376.938080,375.629547 
	C377.470520,376.121765 378.986572,376.210236 379.568329,375.801117 
	C380.137085,375.401123 380.456085,374.035156 380.258087,373.251526 
	C378.511658,366.338409 367.709503,361.790588 362.063385,366.094482 
	C356.817993,370.092957 352.043915,374.841858 347.624207,379.764801 
	C337.180267,391.397797 327.202271,403.449829 316.724518,415.051178 
	C314.371948,417.656006 310.912842,419.476074 307.649902,420.975922 
	C305.058075,422.167328 303.249359,420.829803 304.399872,417.745514 
	C306.023315,413.393585 307.637177,408.994781 309.776215,404.887390 
	C314.382812,396.041809 319.391937,387.406830 324.095825,378.610535 
	C326.521820,374.073914 324.875641,370.714325 319.143036,366.695496 
	C315.084930,363.850555 312.934937,366.056946 310.503204,369.077148 
	C304.551056,376.469727 298.421600,383.720795 292.292694,390.968964 
	C290.466370,393.128815 288.405487,395.090332 286.452087,397.142731 
	C285.990601,396.833679 285.529114,396.524628 285.067627,396.215576 
	C287.058716,392.180847 288.947418,388.091583 291.062378,384.122894 
	C295.333435,376.108368 294.721313,372.441620 288.185120,366.163666 
	C285.757080,363.831482 284.223267,363.630066 281.800354,366.483459 
	C272.118347,377.885529 262.144043,389.039429 251.791580,399.818909 
	C251.623901,399.669495 251.456207,399.520081 251.427246,398.692657 
	C256.683624,387.258270 262.387390,376.002930 267.056458,364.333557 
	C270.873322,354.794037 264.222473,346.282990 253.730225,345.704926 
	C253.555359,349.093933 253.954346,352.613831 253.079269,355.781799 
	C251.632172,361.020447 249.929169,366.340881 247.340286,371.084534 
	C237.641220,388.856079 227.570847,406.425659 217.573959,424.033630 
	C213.297516,431.565918 217.949524,441.202545 225.756027,442.638428 
	C230.986343,435.671204 235.698242,428.877136 240.941742,422.521667 
	C250.661926,410.740265 260.692780,399.215149 271.151184,388.073151 
	C271.354340,388.214020 271.557526,388.354858 271.657837,389.206421 
	C268.671875,395.096771 265.337921,400.840881 262.785889,406.913605 
	C259.410095,414.946503 264.511475,423.066772 272.308838,424.412689 
	C279.558197,415.394379 286.472504,406.792816 293.952423,398.864594 
M481.555420,116.044693 
	C478.788666,119.587486 475.888245,123.034775 473.276978,126.688683 
	C457.240997,149.127441 448.206604,174.684479 441.280914,200.978653 
	C435.757050,221.950638 433.204834,243.461594 433.075897,265.206238 
	C433.070862,266.052612 432.660675,266.896576 432.319702,268.197998 
	C420.066101,257.728577 409.022247,247.033035 401.454254,233.160614 
	C392.661560,217.043213 374.507782,215.529709 364.314850,230.747589 
	C352.290894,248.699203 341.050476,267.212799 330.255463,285.935455 
	C324.460938,295.985352 320.100525,306.892883 315.487823,317.583801 
	C311.729126,326.295288 317.124298,335.115082 325.668060,334.675842 
	C331.769867,334.362152 335.104614,330.397003 337.238251,325.092834 
	C347.539917,299.483459 361.314392,275.758759 376.571075,252.848740 
	C378.175232,250.439896 380.135986,248.268509 382.047882,245.838821 
	C393.114502,263.977051 407.322968,278.314941 423.958801,290.321381 
	C430.559357,295.085114 437.777557,295.193481 444.748383,291.483490 
	C451.640320,287.815552 455.942017,281.928619 455.881866,273.822662 
	C455.681824,246.852905 459.622803,220.591812 466.883575,194.563232 
	C479.935944,147.772919 507.657257,112.926468 549.666687,89.138947 
	C556.389832,85.332024 563.465698,82.148193 570.461670,78.634560 
	C570.790100,79.617355 571.026062,79.945930 570.964844,80.204071 
	C570.658325,81.497383 570.297791,82.779411 569.913513,84.052513 
	C561.673523,111.348022 558.657776,139.062592 563.183472,167.390381 
	C565.892639,184.347687 569.416077,201.082657 576.402588,216.899139 
	C579.965454,224.964966 587.163696,229.984833 595.625488,229.470551 
	C604.268433,228.945236 610.817139,224.948181 614.076050,216.479614 
	C615.687988,212.290817 617.306335,208.097214 619.129883,203.998367 
	C630.145752,179.238281 648.182129,161.715103 673.381897,151.643356 
	C674.403381,151.235092 675.528381,151.085724 676.936707,150.732620 
	C677.028442,152.410400 677.175232,153.707748 677.158875,155.003021 
	C676.893250,176.028641 677.989136,196.884460 682.926575,217.474457 
	C686.998535,234.455093 692.369629,250.924896 702.626526,265.127075 
	C716.783203,284.729065 730.346802,304.604431 741.078918,326.357208 
	C742.534363,329.307343 746.401062,332.247864 749.626160,332.922363 
	C759.100342,334.903687 765.803894,325.677856 761.545837,316.591217 
	C752.053589,296.334900 740.624817,277.102356 726.772766,259.585907 
	C712.816345,241.937485 705.972595,221.609055 703.098877,200.049026 
	C700.799622,182.798447 700.763550,165.210388 700.334229,147.757080 
	C699.950745,132.162811 687.880676,122.552109 673.014954,127.413078 
	C638.786316,138.605560 613.814148,160.443207 598.820068,193.384598 
	C597.686340,195.875397 596.559082,198.369156 595.256409,201.241516 
	C594.627014,200.421432 594.225220,200.107742 594.102783,199.708389 
	C586.526062,174.996628 581.625610,149.832458 585.304138,123.966331 
	C587.258789,110.221848 590.387939,96.473335 594.720154,83.296478 
	C597.752808,74.072327 597.038696,66.727806 590.863953,59.766590 
	C584.743469,52.866596 576.320740,52.042969 568.736511,54.960098 
	C534.926208,67.964638 505.567749,87.656906 481.555420,116.044693 
M757.541199,522.097229 
	C762.940369,511.611755 768.629150,501.261505 773.615173,490.583160 
	C776.070435,485.324768 772.475952,478.853058 767.013184,476.777313 
	C760.603394,474.341675 754.842590,477.042358 751.749695,484.062317 
	C744.937561,499.523865 736.738159,514.241577 726.115356,527.354553 
	C694.015930,566.978577 652.845337,593.098511 603.665344,605.665955 
	C525.909546,625.535522 456.527557,608.462341 397.553802,553.969482 
	C368.682983,527.292297 344.665436,496.372192 329.085510,459.670380 
	C326.420319,453.391937 320.419037,451.058533 314.207367,453.446503 
	C308.623199,455.593201 305.773743,461.791412 307.831238,467.910950 
	C309.101379,471.688690 310.565216,475.439758 312.344666,479.001709 
	C326.901276,508.140137 346.497253,533.725952 368.504944,557.510742 
	C399.855927,591.393311 437.491211,615.223694 482.032043,628.061890 
	C510.327301,636.217529 539.252930,637.915588 568.216064,635.430603 
	C604.095520,632.352234 638.020447,621.751770 669.651367,604.153564 
	C705.541443,584.185669 735.431580,557.862610 757.541199,522.097229 
z"/>
<path fill="#ED1D25" opacity="1.000000" stroke="none" 
	d="
M1.000000,652.457947 
	C360.694702,652.000427 720.389404,652.000854 1080.541992,652.000610 
	C1081.000000,794.969299 1081.000000,937.938660 1081.000000,1080.953979 
	C721.107971,1080.953979 361.215912,1080.953979 1.000000,1080.953979 
	C1.000000,938.305481 1.000000,795.610657 1.000000,652.457947 
M814.410034,885.440979 
	C815.137878,883.220764 815.641235,880.822632 812.355774,880.637573 
	C809.268555,880.463684 806.118958,880.805908 803.052002,881.278442 
	C802.293152,881.395386 801.220276,882.879578 801.190796,883.765076 
	C801.015564,889.037048 801.104065,894.317810 801.104065,899.770264 
	C803.660889,899.770264 805.373596,899.770264 807.534790,899.770264 
	C807.409424,897.452026 807.359375,895.503967 807.189331,893.566467 
	C806.590759,886.745728 808.201599,885.187866 815.097839,886.763916 
	C815.421021,890.425354 814.425354,895.300049 816.397827,897.444092 
	C818.919189,900.184753 823.834595,900.722961 828.170715,902.383545 
	C828.336487,905.581848 825.980652,906.501160 822.406250,905.775757 
	C821.110718,905.512756 819.856262,904.860962 818.568054,904.815735 
	C817.758728,904.787354 816.500000,905.371094 816.213806,906.020081 
	C815.921082,906.683838 816.400757,908.445923 816.832703,908.552734 
	C820.568909,909.476440 824.395386,910.811401 828.145630,910.674255 
	C831.602051,910.547974 834.260742,907.913940 834.333740,904.022095 
	C834.475098,896.481384 834.375122,888.936096 834.375122,881.378540 
	C827.166382,881.643250 819.742981,878.361816 814.410034,885.440979 
M313.120941,830.144775 
	C312.949890,829.974976 312.778870,829.805115 312.795105,828.934875 
	C326.501038,797.711365 340.207001,766.487793 353.945526,735.190063 
	C344.020294,732.729309 331.953217,738.290771 327.666565,746.491943 
	C313.330200,773.920471 301.582855,802.464294 290.780182,831.417419 
	C284.818481,847.395935 275.752625,861.395386 264.215302,873.847534 
	C262.919983,875.245728 261.117645,876.174194 258.427429,878.141785 
	C259.057190,875.202820 259.197784,873.887756 259.621307,872.671143 
	C264.588867,858.400635 269.434265,844.084473 274.647644,829.903809 
	C279.155548,817.641968 279.345978,817.711914 266.409149,815.718872 
	C259.672974,814.681091 257.561066,815.250305 255.162109,821.746277 
	C249.128632,838.084045 243.530792,854.590088 238.150055,871.155884 
	C236.951828,874.844849 236.923935,879.079590 237.123566,883.024231 
	C237.617569,892.786438 249.693710,899.409729 257.747223,893.992737 
	C262.607025,890.723816 266.405579,885.875916 270.675842,881.732178 
	C272.810699,879.660583 274.934265,877.577393 277.837128,874.743774 
	C277.605347,884.011841 278.262177,884.884094 285.842896,886.941284 
	C286.966949,887.246399 288.108185,887.490234 289.226746,887.813354 
	C292.888428,888.871216 294.943604,887.508850 296.689392,884.063232 
	C303.368530,870.880859 309.761627,857.486938 317.489197,844.927307 
	C322.111084,837.415344 328.973267,831.270447 334.938599,824.609802 
	C335.742279,823.712402 337.191406,823.393005 339.636169,822.145325 
	C336.884277,829.714478 334.035706,835.608887 332.644989,841.829224 
	C330.556458,851.170837 329.115906,860.703003 328.147034,870.230103 
	C327.666229,874.957947 330.464874,878.859375 335.005035,880.923157 
	C339.685272,883.050598 343.798981,881.643127 347.409119,878.398499 
	C349.387543,876.620361 351.255829,874.709290 353.071625,872.762878 
	C356.270050,869.334534 359.390228,865.833130 363.510468,861.297485 
	C364.224762,870.691895 369.392029,874.546387 376.864380,874.537415 
	C380.996613,874.532471 385.602844,873.357849 389.147156,871.270203 
	C394.637634,868.036194 399.402771,863.570679 404.667328,859.478149 
	C405.350342,860.353271 406.338745,861.636841 407.345032,862.906311 
	C414.590546,872.046875 424.663940,872.658691 433.259888,864.744263 
	C444.512177,854.384155 454.019287,842.725220 460.970245,829.041748 
	C464.692200,821.714783 468.524384,814.443787 472.435394,806.899414 
	C475.500702,817.946167 478.649811,828.713440 481.441071,839.572693 
	C483.110352,846.066772 480.724365,850.035767 474.927155,851.435730 
	C470.553741,852.492004 467.333160,850.186096 465.050018,847.056641 
	C462.206635,843.159180 459.547180,843.378479 456.392761,846.260437 
	C454.799347,847.716370 452.808075,849.003479 451.856995,850.817932 
	C450.975555,852.499634 450.307861,855.373962 451.152222,856.701965 
	C456.157440,864.573914 462.766876,870.676453 472.743439,870.789673 
	C489.319489,870.977905 505.970093,851.909668 503.897522,835.563843 
	C503.697296,833.984619 503.250885,831.883728 504.020172,830.825684 
	C508.455627,824.725586 513.222595,818.866455 518.140686,812.589355 
	C521.867676,819.056274 525.426514,824.689270 528.395813,830.617554 
	C529.831970,833.484985 530.917725,836.925476 530.840454,840.074097 
	C530.655701,847.600037 523.947693,850.986816 517.431213,847.278198 
	C516.708618,846.867004 516.012878,846.402893 515.268982,846.035583 
	C512.511658,844.674072 509.797424,844.235901 507.620728,847.010071 
	C505.400421,849.839783 504.577881,852.630249 507.100220,856.006287 
	C512.348999,863.031616 519.821838,864.750610 527.822876,865.092834 
	C543.888794,865.779846 556.599121,851.140137 553.140869,835.467041 
	C551.874329,829.726685 549.159668,824.240662 546.634399,818.859802 
	C543.532043,812.249390 539.773315,805.949036 536.602173,799.368286 
	C533.696289,793.338013 535.179382,785.941284 540.160828,782.806335 
	C542.161865,781.547058 545.154968,781.423767 547.626953,781.627625 
	C548.348816,781.687134 549.177612,784.622620 549.345825,786.301208 
	C549.642578,789.263489 551.342346,789.928040 553.323914,788.532043 
	C555.239929,787.182312 557.142822,785.182739 557.978577,783.048462 
	C560.560486,776.454712 556.210510,770.041504 547.601257,767.081360 
	C531.120605,761.414673 513.089294,774.854065 513.657532,793.110901 
	C514.049561,805.704956 504.416962,812.096375 498.488068,821.204895 
	C492.703796,806.959839 484.107513,793.331177 493.955292,776.950928 
	C490.028442,774.889709 486.234497,772.498413 482.142212,770.845947 
	C476.329315,768.498840 472.485260,770.301819 470.195312,776.085449 
	C467.994324,781.644226 466.035645,787.299072 463.974762,792.913269 
	C457.134674,811.546814 449.597015,829.826477 436.262604,844.979065 
	C433.841766,847.729980 430.844635,849.973694 427.797668,852.738159 
	C424.870117,846.091431 426.417908,840.602173 428.469208,835.625854 
	C433.210510,824.124023 438.598083,812.887878 443.759613,801.560425 
	C446.469910,795.612305 445.879303,793.297607 440.529541,789.540222 
	C434.068604,785.002502 432.114410,785.278748 425.737000,791.631714 
	C413.480225,782.613647 403.868622,782.506897 392.371887,792.385620 
	C377.838898,804.873352 368.417572,820.827026 363.955292,839.400452 
	C361.798767,848.376526 356.061127,853.799805 348.381195,858.349426 
	C350.605743,849.311584 353.259583,840.460083 356.540985,831.847656 
	C359.729950,823.477905 363.760651,815.431274 367.040161,807.092651 
	C369.105377,801.841553 367.190369,796.613220 362.966583,793.897095 
	C358.729706,791.172668 352.166229,791.388000 348.561676,795.001465 
	C336.805908,806.786194 325.247833,818.768127 313.120941,830.144775 
M590.895935,783.359680 
	C584.770386,804.320679 581.495300,825.613037 584.061890,847.471558 
	C586.835022,871.090698 591.816345,894.216614 603.719604,915.087708 
	C638.975220,976.904724 713.530212,1020.509705 798.434265,1001.395264 
	C813.598816,997.981201 827.892334,992.317627 841.055542,983.170227 
	C838.236816,979.557373 835.643494,976.233398 833.136963,973.020752 
	C830.413940,974.531189 828.263184,975.797424 826.045715,976.933533 
	C823.825623,978.071045 821.576538,979.168396 819.275879,980.129517 
	C776.684753,997.923096 734.559143,995.711914 692.782532,977.225830 
	C629.848877,949.377869 590.949585,881.853455 598.821167,813.460632 
	C601.928589,786.461243 612.197388,762.062500 627.787598,739.934631 
	C656.579895,699.068481 698.316345,680.262756 746.097107,677.750061 
	C803.666992,674.722656 851.024414,696.133484 882.443420,747.259399 
	C903.021729,780.744873 913.704285,815.904602 907.151978,855.597534 
	C900.235962,897.493469 881.036804,931.334167 845.417480,955.209778 
	C841.308472,957.963928 837.070496,960.525635 832.808105,963.230042 
	C837.071838,968.963135 841.131409,974.421814 845.330078,980.067383 
	C848.653320,977.805664 851.641541,975.771973 854.601318,973.757690 
	C853.608521,971.679993 852.781067,969.948364 851.936218,968.180298 
	C853.196106,967.333801 854.159119,966.693604 855.114929,966.042847 
	C856.215942,965.293396 857.366943,964.604431 858.399841,963.769958 
	C910.229919,921.896729 934.698364,868.274963 921.535278,802.099487 
	C900.849182,698.103699 810.926880,654.452271 731.979858,665.752014 
	C662.075378,675.757507 615.204773,716.087585 590.895935,783.359680 
M171.627823,793.079041 
	C175.720520,791.554077 179.813217,790.029114 184.703705,788.206848 
	C180.219574,800.626465 176.306015,811.911072 171.980637,823.035583 
	C171.201157,825.040344 169.005737,826.998962 166.982117,827.919373 
	C161.316589,830.496338 155.398804,832.518677 149.448074,834.810852 
	C152.439926,841.732056 154.216187,848.940735 162.461136,848.939575 
	C157.637543,866.714783 152.989700,884.028137 148.221924,901.308411 
	C146.608307,907.156799 147.812317,911.743774 153.147537,915.083557 
	C156.104553,916.934631 158.830231,919.151001 161.725418,921.106079 
	C167.553986,925.041870 168.150848,924.736877 169.958740,918.130615 
	C176.227310,895.224487 182.686798,872.369812 188.804596,849.423889 
	C190.104782,844.547241 192.980759,842.317017 197.497971,841.011597 
	C212.032837,836.811279 226.514679,832.427124 241.012573,828.099182 
	C245.651001,826.714478 246.257111,825.135376 243.831833,820.931946 
	C240.013351,814.313782 233.238724,811.608826 224.383575,813.239319 
	C216.007614,814.781494 207.642624,816.383240 198.072678,818.184692 
	C203.552032,805.073181 208.429047,793.113098 213.640030,781.300293 
	C214.292007,779.822327 216.573074,778.615723 218.330032,778.145569 
	C229.091110,775.266113 239.878265,772.458984 250.734436,769.966125 
	C264.175690,766.879639 277.770752,764.436096 291.145996,761.099792 
	C298.613647,759.237061 299.255066,754.732788 293.120850,749.778870 
	C291.003693,748.069092 288.216187,746.590576 285.575775,746.253967 
	C280.349701,745.587463 274.760986,744.680664 269.763214,745.815491 
	C240.427689,752.476807 211.132263,759.362000 182.012802,766.903442 
	C170.969330,769.763550 160.203125,774.052185 149.726349,778.639404 
	C139.764160,783.001221 135.750992,791.743530 137.779190,801.397705 
	C138.781860,806.170410 141.474518,807.358643 145.738022,805.276672 
	C154.079575,801.203247 162.512634,797.317139 171.627823,793.079041 
M704.481934,813.609558 
	C696.195923,810.224060 691.729004,816.745422 686.970276,820.362549 
	C684.675964,817.546448 682.913513,814.430481 680.305359,812.401489 
	C676.227783,809.229492 674.671997,810.075439 672.932617,815.123169 
	C671.146362,820.306824 669.125366,825.412537 667.446411,830.629395 
	C665.359863,837.112976 663.336487,843.628967 661.648193,850.223633 
	C660.801331,853.531860 664.527771,857.457336 669.154236,857.698425 
	C670.512756,857.769226 672.428894,855.253967 673.385315,853.532654 
	C677.730286,845.713074 681.608032,837.627014 686.137634,829.921204 
	C687.516418,827.575623 690.442261,826.139526 692.659546,824.286865 
	C693.137024,824.712341 693.614441,825.137878 694.091919,825.563354 
	C692.090759,830.416931 690.005493,835.237976 688.106873,840.131348 
	C684.732117,848.829285 686.428040,852.192078 695.762207,855.309265 
	C701.505676,844.072998 705.750366,831.741577 716.721069,823.813354 
	C716.748535,826.655884 715.952942,829.105530 715.247070,831.580811 
	C713.749695,836.831360 711.935364,842.028137 710.947083,847.375549 
	C710.189758,851.473267 711.334473,855.462952 715.566040,857.532837 
	C720.070129,859.736206 724.075317,858.367798 727.402527,855.050781 
	C730.435913,852.026794 733.191040,848.723755 736.308472,845.278870 
	C737.200623,846.671814 737.617920,847.044922 737.688843,847.475098 
	C739.191101,856.595825 747.446045,861.000366 757.049133,854.020264 
	C760.240967,851.700195 763.310791,849.212280 766.669861,846.620972 
	C766.755920,847.532349 766.743225,848.020752 766.854919,848.478760 
	C767.589600,851.492554 767.392883,855.686890 769.319458,857.242004 
	C772.524902,859.829468 776.119934,857.468628 778.964355,854.747437 
	C782.029968,851.814636 785.267456,849.061523 788.643127,846.039185 
	C790.267761,861.678345 790.806946,862.449707 800.502197,863.755493 
	C800.905151,857.649475 800.101685,851.131897 801.958008,845.489441 
	C806.143372,832.768433 811.558899,820.444336 816.753601,808.076233 
	C817.233032,806.934631 819.653320,806.366272 821.278564,805.989075 
	C828.705994,804.265198 836.206726,802.843506 843.591309,800.960449 
	C844.960571,800.611267 845.915955,798.638733 847.062317,797.415344 
	C845.549622,796.786072 844.053894,795.666687 842.521301,795.613770 
	C836.443909,795.403870 830.354980,795.527527 823.939758,795.527527 
	C825.471069,792.164795 827.119385,788.935669 828.427002,785.574036 
	C830.038818,781.430054 827.949768,778.853943 821.974792,776.247437 
	C817.886353,774.463928 816.264038,776.302063 814.934143,779.785828 
	C813.276062,784.129333 811.104553,788.282227 809.548706,792.657471 
	C808.483398,795.653503 806.826843,796.676758 803.685913,796.670044 
	C796.193054,796.654175 788.698364,797.195801 781.206482,797.152710 
	C777.426147,797.130981 775.426697,798.917603 775.059875,802.240540 
	C774.601318,806.393127 778.376953,805.916504 780.659668,806.071228 
	C786.797363,806.487061 792.970581,806.367981 799.129089,806.493835 
	C800.331482,806.518372 801.530823,806.689331 803.525452,806.861206 
	C795.928955,820.837402 791.601318,835.848694 778.938293,845.770569 
	C778.862549,843.285400 779.318604,841.068115 780.166626,839.012573 
	C781.241333,836.407349 783.144409,834.044006 783.724182,831.367126 
	C784.162720,829.342590 783.797913,826.353088 782.522461,824.928528 
	C780.471802,822.638306 777.638428,823.431763 775.567200,825.754456 
	C773.240784,828.363342 771.098511,831.147461 768.655273,833.638611 
	C764.703918,837.667542 760.668762,841.628418 756.449280,845.370239 
	C755.381531,846.316956 753.482605,846.326294 751.965576,846.766357 
	C751.597351,845.234802 750.841675,843.682556 750.921814,842.174866 
	C751.617615,829.092712 765.867554,817.807129 778.762329,819.977295 
	C779.473816,820.096985 780.222900,819.992859 781.111572,819.992859 
	C778.435913,813.038940 771.188538,809.473694 763.378113,811.513733 
	C751.417419,814.637756 743.567444,822.384460 738.976624,833.830688 
	C736.309753,840.479919 730.349487,844.024292 724.447449,847.666626 
	C724.349670,845.259338 724.685791,843.171631 725.261292,841.152222 
	C726.901672,835.397217 728.695984,829.685913 730.320435,823.926636 
	C731.554504,819.551147 730.945190,815.591553 726.837891,812.935669 
	C722.546021,810.160339 718.908752,811.961365 715.558350,814.922363 
	C713.238098,816.972900 710.942444,819.051392 709.126526,820.677856 
	C707.711670,818.268372 706.456665,816.131104 704.481934,813.609558 
M275.060211,930.497925 
	C331.612457,914.443665 389.343109,905.110107 447.919678,901.271667 
	C471.480682,899.727722 495.164062,900.064575 518.790283,899.486450 
	C522.108643,899.405212 525.712830,899.696289 528.634460,898.486267 
	C530.764282,897.604248 531.988953,894.536743 533.617126,892.443481 
	C531.889587,891.239502 530.280884,889.242676 528.414856,888.963074 
	C518.067322,887.412598 507.669556,885.303406 497.266418,885.172241 
	C451.420807,884.593933 405.819305,887.418152 360.646484,896.003479 
	C314.013062,904.866516 267.980560,915.887451 223.230713,931.901062 
	C216.465683,934.321838 213.787903,938.990906 216.045685,944.785278 
	C217.917007,949.587891 222.035278,950.649536 228.629501,948.135559 
	C243.849533,942.332947 259.084381,936.569336 275.060211,930.497925 
M864.405151,775.122437 
	C854.662231,792.056702 849.267639,810.587402 845.526978,829.526123 
	C843.431641,840.134888 835.607483,844.328369 827.674561,848.704468 
	C823.789612,850.847595 820.199341,848.157227 820.490295,843.606201 
	C820.957947,836.290405 823.097961,829.493347 828.839294,824.465088 
	C830.055115,823.400208 831.948547,823.109009 833.529846,822.461426 
	C833.667969,824.110046 833.885498,825.757141 833.915833,827.407776 
	C833.935303,828.468384 833.679382,829.534058 833.518860,830.822998 
	C838.098022,831.308044 840.584595,829.334106 841.670898,825.551575 
	C843.782349,818.199463 838.413757,813.332214 830.181641,815.039917 
	C817.131958,817.746826 805.070007,835.356812 807.188843,848.608337 
	C808.335510,855.779846 813.986816,860.188354 821.101990,858.751526 
	C824.582825,858.048523 827.919006,856.262451 831.099426,854.554565 
	C833.659424,853.179932 835.886902,851.186035 837.143066,850.276733 
	C839.344910,853.299500 840.638916,856.868408 843.070007,858.004883 
	C846.985840,859.835449 849.209595,856.009460 851.260315,853.185425 
	C855.268188,847.666626 859.031555,841.957275 863.267334,836.621521 
	C866.024170,833.148682 869.436157,830.195984 872.554688,827.010315 
	C873.086304,827.373108 873.617920,827.735901 874.149536,828.098633 
	C873.249939,831.021667 872.333923,833.939697 871.454590,836.868835 
	C869.977966,841.787476 867.920898,846.639709 867.308899,851.666016 
	C866.989197,854.292419 868.489441,858.604431 870.496033,859.682312 
	C873.047607,861.053162 877.636780,861.104248 880.137878,859.647583 
	C888.790161,854.608398 895.326904,847.284119 898.937195,837.751709 
	C899.393433,836.546997 898.676758,834.898010 898.503479,833.454895 
	C896.948975,833.882935 894.784668,833.810547 893.949158,834.828613 
	C890.898132,838.546448 888.346069,842.668945 885.489014,846.552917 
	C884.298828,848.170898 882.814819,849.572815 881.464417,851.072998 
	C881.001404,850.810242 880.538330,850.547546 880.075317,850.284790 
	C881.226196,846.924377 882.520142,843.604858 883.496582,840.194458 
	C885.222717,834.165466 887.424927,828.163086 888.180237,821.996704 
	C888.930725,815.869202 884.111877,812.238281 878.194824,814.135681 
	C874.676514,815.263977 871.413696,817.572327 868.422241,819.855896 
	C865.200562,822.315186 862.429993,825.365356 858.352539,829.202637 
	C859.066101,825.974060 859.219299,824.140930 859.872375,822.507507 
	C864.801025,810.181396 869.926331,797.932739 874.724915,785.556946 
	C875.505615,783.543579 875.914856,779.750000 874.871582,778.979858 
	C872.015686,776.872009 869.815308,772.177002 864.405151,775.122437 
M652.520813,834.044678 
	C648.607483,829.960144 644.686157,825.883179 640.782837,821.789001 
	C636.770935,817.580750 633.887695,812.885498 633.801086,806.795959 
	C633.629150,794.708984 641.369751,785.309387 654.290771,781.984985 
	C662.032104,779.993286 669.335327,781.356445 676.417969,785.075073 
	C676.720337,775.644348 672.209229,770.062256 663.294617,768.041504 
	C653.615479,765.847412 644.757996,768.320312 636.374817,772.836304 
	C612.484192,785.706177 609.378357,813.026550 629.539246,830.666748 
	C632.874146,833.584717 635.923889,837.053223 638.310974,840.776611 
	C641.784302,846.194397 640.483765,849.989014 634.754517,853.089233 
	C629.233765,856.076660 623.408081,856.416870 617.313416,854.977783 
	C615.457520,854.539612 613.365295,855.102295 611.381287,855.206665 
	C612.301147,857.513672 612.951294,859.989990 614.250183,862.059082 
	C614.940796,863.159119 616.683594,863.768188 618.073914,864.231873 
	C626.907898,867.178223 635.833496,867.856873 644.265076,863.286377 
	C657.730591,855.987122 661.430664,847.277039 652.520813,834.044678 
M272.499451,784.793457 
	C270.064819,786.706482 267.266296,788.305176 265.279449,790.605042 
	C262.175598,794.197876 261.761169,798.456787 264.581635,802.525024 
	C267.343414,806.508667 271.286377,807.725464 275.952148,806.608643 
	C281.552094,805.268127 285.241364,801.649719 287.454620,796.507080 
	C290.211395,790.101624 285.583191,783.354980 278.579865,783.552551 
	C276.782623,783.603271 274.999817,784.166626 272.499451,784.793457 
M766.816101,880.467529 
	C766.031616,880.654114 765.247070,880.840698 764.066284,881.121582 
	C764.066284,878.034241 764.308350,875.201782 763.932007,872.453979 
	C763.804260,871.521118 762.132751,870.180115 761.136658,870.153564 
	C760.061707,870.124939 758.015930,871.395142 757.998596,872.136353 
	C757.781677,881.399048 757.856506,890.668640 757.856506,899.559021 
	C760.809204,900.131165 763.063782,900.655945 765.346069,900.993835 
	C772.033875,901.983948 777.083862,898.289612 777.869324,891.911255 
	C778.702393,885.146729 774.810181,880.706726 766.816101,880.467529 
M853.228882,896.212708 
	C851.621094,896.416199 850.008240,896.586792 848.406494,896.830200 
	C845.342163,897.295837 843.268860,896.505005 843.018616,892.693604 
	C845.215698,892.577209 847.180054,892.598694 849.107056,892.341125 
	C851.909241,891.966675 855.016602,891.762695 855.062622,887.785156 
	C855.104431,884.171509 853.323059,881.872864 849.847900,880.807007 
	C845.100708,879.351196 840.474609,881.098145 837.853516,885.422302 
	C835.099731,889.965088 835.626099,895.520325 839.107483,898.656494 
	C842.603760,901.806152 849.643982,902.656860 853.132141,900.079102 
	C853.805115,899.581665 853.620728,897.924194 853.228882,896.212708 
M780.161072,888.541199 
	C780.164917,898.054016 781.349121,900.139404 788.071289,900.615356 
	C790.775940,900.806763 793.632141,899.923950 796.290833,899.110046 
	C797.192444,898.834106 798.251343,897.290649 798.292786,896.287354 
	C798.497925,891.330078 798.386108,886.359741 798.386108,881.412537 
	C793.868408,880.272278 791.420349,880.907166 791.926392,885.935791 
	C792.251648,889.168396 791.987366,892.460449 791.987366,895.759583 
	C786.832947,895.328674 786.341248,894.935425 786.174072,890.991394 
	C786.068359,888.496094 786.455688,885.937744 786.016418,883.517517 
	C785.814209,882.403259 784.071228,880.704956 783.186707,880.797607 
	C782.089905,880.912476 780.802063,882.451416 780.261169,883.670105 
	C779.767090,884.783386 780.159058,886.289917 780.161072,888.541199 
M867.514832,880.958008 
	C865.444458,881.186462 863.154724,882.090393 861.349060,881.503906 
	C857.499023,880.253479 856.276367,881.899902 856.376221,885.169189 
	C856.531433,890.251648 857.019531,895.323914 857.362976,900.348633 
	C862.961975,900.958435 863.393005,900.504578 863.116394,894.847351 
	C862.919373,890.818176 861.509521,886.438782 868.083191,885.587769 
	C870.668457,885.253113 871.020813,882.702820 867.514832,880.958008 
z"/>
<path fill="#E81B23" opacity="1.000000" stroke="none" 
	d="
M481.776886,115.766357 
	C505.567749,87.656906 534.926208,67.964638 568.736511,54.960098 
	C576.320740,52.042969 584.743469,52.866596 590.863953,59.766590 
	C597.038696,66.727806 597.752808,74.072327 594.720154,83.296478 
	C590.387939,96.473335 587.258789,110.221848 585.304138,123.966331 
	C581.625610,149.832458 586.526062,174.996628 594.102783,199.708389 
	C594.225220,200.107742 594.627014,200.421432 595.256409,201.241516 
	C596.559082,198.369156 597.686340,195.875397 598.820068,193.384598 
	C613.814148,160.443207 638.786316,138.605560 673.014954,127.413078 
	C687.880676,122.552109 699.950745,132.162811 700.334229,147.757080 
	C700.763550,165.210388 700.799622,182.798447 703.098877,200.049026 
	C705.972595,221.609055 712.816345,241.937485 726.772766,259.585907 
	C740.624817,277.102356 752.053589,296.334900 761.545837,316.591217 
	C765.803894,325.677856 759.100342,334.903687 749.626160,332.922363 
	C746.401062,332.247864 742.534363,329.307343 741.078918,326.357208 
	C730.346802,304.604431 716.783203,284.729065 702.626526,265.127075 
	C692.369629,250.924896 686.998535,234.455093 682.926575,217.474457 
	C677.989136,196.884460 676.893250,176.028641 677.158875,155.003021 
	C677.175232,153.707748 677.028442,152.410400 676.936707,150.732620 
	C675.528381,151.085724 674.403381,151.235092 673.381897,151.643356 
	C648.182129,161.715103 630.145752,179.238281 619.129883,203.998367 
	C617.306335,208.097214 615.687988,212.290817 614.076050,216.479614 
	C610.817139,224.948181 604.268433,228.945236 595.625488,229.470551 
	C587.163696,229.984833 579.965454,224.964966 576.402588,216.899139 
	C569.416077,201.082657 565.892639,184.347687 563.183472,167.390381 
	C558.657776,139.062592 561.673523,111.348022 569.913513,84.052513 
	C570.297791,82.779411 570.658325,81.497383 570.964844,80.204071 
	C571.026062,79.945930 570.790100,79.617355 570.461670,78.634560 
	C563.465698,82.148193 556.389832,85.332024 549.666687,89.138947 
	C507.657257,112.926468 479.935944,147.772919 466.883575,194.563232 
	C459.622803,220.591812 455.681824,246.852905 455.881866,273.822662 
	C455.942017,281.928619 451.640320,287.815552 444.748383,291.483490 
	C437.777557,295.193481 430.559357,295.085114 423.958801,290.321381 
	C407.322968,278.314941 393.114502,263.977051 382.047882,245.838821 
	C380.135986,248.268509 378.175232,250.439896 376.571075,252.848740 
	C361.314392,275.758759 347.539917,299.483459 337.238251,325.092834 
	C335.104614,330.397003 331.769867,334.362152 325.668060,334.675842 
	C317.124298,335.115082 311.729126,326.295288 315.487823,317.583801 
	C320.100525,306.892883 324.460938,295.985352 330.255463,285.935455 
	C341.050476,267.212799 352.290894,248.699203 364.314850,230.747589 
	C374.507782,215.529709 392.661560,217.043213 401.454254,233.160614 
	C409.022247,247.033035 420.066101,257.728577 432.319702,268.197998 
	C432.660675,266.896576 433.070862,266.052612 433.075897,265.206238 
	C433.204834,243.461594 435.757050,221.950638 441.280914,200.978653 
	C448.206604,174.684479 457.240997,149.127441 473.276978,126.688683 
	C475.888245,123.034775 478.788666,119.587486 481.776886,115.766357 
z"/>
<path fill="#E91B23" opacity="1.000000" stroke="none" 
	d="
M757.336182,522.397705 
	C735.431580,557.862610 705.541443,584.185669 669.651367,604.153564 
	C638.020447,621.751770 604.095520,632.352234 568.216064,635.430603 
	C539.252930,637.915588 510.327301,636.217529 482.032043,628.061890 
	C437.491211,615.223694 399.855927,591.393311 368.504944,557.510742 
	C346.497253,533.725952 326.901276,508.140137 312.344666,479.001709 
	C310.565216,475.439758 309.101379,471.688690 307.831238,467.910950 
	C305.773743,461.791412 308.623199,455.593201 314.207367,453.446503 
	C320.419037,451.058533 326.420319,453.391937 329.085510,459.670380 
	C344.665436,496.372192 368.682983,527.292297 397.553802,553.969482 
	C456.527557,608.462341 525.909546,625.535522 603.665344,605.665955 
	C652.845337,593.098511 694.015930,566.978577 726.115356,527.354553 
	C736.738159,514.241577 744.937561,499.523865 751.749695,484.062317 
	C754.842590,477.042358 760.603394,474.341675 767.013184,476.777313 
	C772.475952,478.853058 776.070435,485.324768 773.615173,490.583160 
	C768.629150,501.261505 762.940369,511.611755 757.336182,522.397705 
z"/>
<path fill="#F6F6F6" opacity="1.000000" stroke="none" 
	d="
M293.386841,398.191284 
	C286.472504,406.792816 279.558197,415.394379 272.308838,424.412689 
	C264.511475,423.066772 259.410095,414.946503 262.785889,406.913605 
	C265.337921,400.840881 268.671875,395.096771 271.842896,388.582336 
	C271.550049,387.833252 271.072144,387.708282 270.594269,387.583313 
	C260.692780,399.215149 250.661926,410.740265 240.941742,422.521667 
	C235.698242,428.877136 230.986343,435.671204 225.756027,442.638428 
	C217.949524,441.202545 213.297516,431.565918 217.573959,424.033630 
	C227.570847,406.425659 237.641220,388.856079 247.340286,371.084534 
	C249.929169,366.340881 251.632172,361.020447 253.079269,355.781799 
	C253.954346,352.613831 253.555359,349.093933 253.730225,345.704926 
	C264.222473,346.282990 270.873322,354.794037 267.056458,364.333557 
	C262.387390,376.002930 256.683624,387.258270 251.098251,399.212891 
	C250.617111,400.104095 250.464966,400.475006 250.312805,400.845947 
	C250.967834,400.659027 251.622879,400.472107 252.277908,400.285187 
	C262.144043,389.039429 272.118347,377.885529 281.800354,366.483459 
	C284.223267,363.630066 285.757080,363.831482 288.185120,366.163666 
	C294.721313,372.441620 295.333435,376.108368 291.062378,384.122894 
	C288.947418,388.091583 287.058716,392.180847 285.067627,396.215576 
	C285.529114,396.524628 285.990601,396.833679 286.452087,397.142731 
	C288.405487,395.090332 290.466370,393.128815 292.292694,390.968964 
	C298.421600,383.720795 304.551056,376.469727 310.503204,369.077148 
	C312.934937,366.056946 315.084930,363.850555 319.143036,366.695496 
	C324.875641,370.714325 326.521820,374.073914 324.095825,378.610535 
	C319.391937,387.406830 314.382812,396.041809 309.776215,404.887390 
	C307.637177,408.994781 306.023315,413.393585 304.399872,417.745514 
	C303.249359,420.829803 305.058075,422.167328 307.649902,420.975922 
	C310.912842,419.476074 314.371948,417.656006 316.724518,415.051178 
	C327.202271,403.449829 337.180267,391.397797 347.624207,379.764801 
	C352.043915,374.841858 356.817993,370.092957 362.063385,366.094482 
	C367.709503,361.790588 378.511658,366.338409 380.258087,373.251526 
	C380.456085,374.035156 380.137085,375.401123 379.568329,375.801117 
	C378.986572,376.210236 377.470520,376.121765 376.938080,375.629547 
	C374.335876,373.223877 372.376495,374.716156 370.421051,376.444153 
	C360.560181,385.158020 352.824005,395.494720 347.249786,407.393799 
	C346.289490,409.443604 346.229065,411.914948 345.752991,414.191589 
	C346.329376,414.516388 346.905731,414.841217 347.482117,415.166016 
	C351.396271,411.043610 355.492004,407.076538 359.182526,402.762787 
	C364.915161,396.062042 370.386017,389.136627 375.940338,382.284180 
	C379.222900,378.234406 381.399841,377.863678 385.698792,380.731018 
	C390.687195,384.058289 391.339203,386.407196 389.059479,391.019623 
	C385.923706,397.364044 383.008606,403.817566 379.998962,410.224335 
	C380.434448,410.708771 380.869934,411.193176 381.305420,411.677612 
	C383.219940,410.850952 385.449982,410.407104 386.995789,409.133057 
	C394.759308,402.734589 400.954193,395.202789 405.267670,385.884186 
	C412.517029,370.223053 420.482269,354.892883 428.178192,339.439331 
	C429.191986,337.403625 430.392883,335.461060 431.747955,333.046112 
	C415.670441,330.350067 399.767212,331.555450 384.289734,329.142273 
	C384.279846,328.443817 384.269928,327.745392 384.260040,327.046936 
	C385.882996,326.657013 387.491730,326.007568 389.131134,325.917725 
	C403.765656,325.115753 418.401520,324.303619 433.046936,323.763275 
	C436.354095,323.641266 438.307739,322.673828 440.355804,319.903625 
	C445.779449,312.567596 451.534241,305.433258 457.657837,298.672058 
	C462.183990,293.674713 470.549774,295.264709 473.416718,301.468964 
	C474.058319,302.857422 473.252960,305.583923 472.180969,306.976196 
	C468.069427,312.316315 463.578278,317.364136 459.228821,322.521027 
	C459.401672,322.985992 459.574524,323.450928 459.747375,323.915863 
	C462.811218,323.915863 465.880524,323.797852 468.937714,323.940552 
	C475.227570,324.234100 480.625275,330.330109 480.503540,336.599365 
	C480.428162,340.481903 477.918671,340.485535 475.345490,339.934814 
	C469.332825,338.647980 463.289398,337.388458 457.417572,335.596375 
	C452.608612,334.128723 450.101166,335.607300 447.446716,339.810089 
	C432.303375,363.786652 419.325165,388.819550 410.308685,415.727753 
	C407.618073,423.757385 404.709259,432.153137 407.516235,440.968597 
	C403.092651,442.184814 396.120117,438.113831 395.342987,432.357361 
	C394.497498,426.094452 395.499115,419.572296 395.817841,413.169250 
	C395.894623,411.626465 396.454376,410.107697 397.076111,407.290833 
	C393.107056,410.282715 390.398163,412.609314 387.415680,414.505554 
	C383.044281,417.284851 378.474335,419.029480 373.494171,415.564270 
	C368.586212,412.149353 367.117004,407.736633 369.017853,402.081635 
	C369.428436,400.860168 369.430084,399.501251 368.733093,397.567108 
	C367.394836,399.175140 366.116943,400.838287 364.708008,402.381836 
	C357.886993,409.854645 351.522217,417.841156 344.036407,424.579926 
	C337.698547,430.285339 331.791107,427.885162 328.900909,419.607849 
	C328.209137,417.626648 327.894806,415.513702 327.068115,412.036346 
	C324.698181,414.772766 323.074310,416.786469 321.300232,418.657715 
	C319.468536,420.589722 317.587189,422.496735 315.560577,424.218079 
	C305.301270,432.932251 295.193939,430.531219 289.920776,417.935150 
	C289.116119,416.013092 289.299133,413.305389 289.928711,411.235931 
	C291.081696,407.445892 292.908844,403.860901 294.729065,399.643616 
	C295.227234,398.566010 295.451202,398.035217 295.825928,397.247986 
	C295.889648,396.709930 295.802612,396.428284 295.715607,396.146667 
	C295.369904,396.323700 295.024200,396.500732 294.432953,396.770355 
	C293.920532,397.305695 293.653687,397.748505 293.386841,398.191284 
M284.819489,396.708618 
	C284.712738,397.041748 284.606018,397.374908 284.499268,397.708038 
	C284.907532,397.799500 285.315826,397.890991 285.724091,397.982452 
	C285.722473,397.484253 285.720856,396.986053 284.819489,396.708618 
M397.000000,407.500000 
	C396.799988,407.366669 396.599976,407.233337 396.399963,407.100006 
	C396.433319,407.399994 396.466644,407.700012 397.000000,407.500000 
z"/>
<path fill="#F6F6F6" opacity="1.000000" stroke="none" 
	d="
M522.639893,394.364258 
	C513.121277,404.337189 503.602661,414.310120 493.877350,424.499603 
	C486.874237,422.642303 484.498871,418.797607 483.860046,406.932709 
	C479.947449,410.663361 476.587006,414.530182 472.582550,417.540253 
	C465.440491,422.908813 458.138031,428.146759 450.457153,432.685333 
	C445.673553,435.511932 440.106201,436.557831 434.943909,432.562134 
	C428.948608,427.921753 424.089996,422.044464 426.125244,414.350555 
	C428.164429,406.641968 431.820953,399.211273 435.707428,392.177551 
	C441.160919,382.307831 448.766571,374.156799 458.442261,368.089905 
	C468.651581,361.688324 475.920288,363.905518 483.543518,373.295685 
	C485.263336,375.414154 485.881165,380.128784 484.714722,382.539490 
	C482.181580,387.774658 478.689270,392.802948 474.616699,396.964111 
	C470.481567,401.189178 466.507019,399.976501 462.820587,394.478760 
	C469.996368,392.132690 473.264771,386.166351 476.096771,379.912903 
	C476.638123,378.717529 476.795197,376.253510 476.182190,375.863403 
	C474.994141,375.107361 472.796448,374.773956 471.616943,375.398468 
	C468.710663,376.937073 465.786804,378.767029 463.501892,381.099030 
	C453.164703,391.649414 444.627625,403.504456 439.762054,417.571808 
	C438.676178,420.711212 439.412567,424.480927 439.309998,427.960449 
	C442.793579,427.406891 446.580688,427.546387 449.707092,426.177216 
	C461.835297,420.865875 471.087982,411.601654 480.423523,402.570526 
	C484.487091,398.639404 488.355438,394.466827 491.935120,390.094971 
	C493.348969,388.368256 493.735657,385.800476 494.773499,383.146484 
	C496.197083,381.589081 498.498383,379.773376 499.903595,377.422150 
	C510.179169,360.228821 521.673767,343.937561 535.131409,329.080353 
	C537.239014,326.753540 539.605530,324.585266 542.137512,322.733582 
	C548.914124,317.777710 557.769043,320.551147 561.308289,328.833710 
	C549.538391,332.441406 543.630981,342.648376 536.350403,351.298004 
	C533.250610,354.980774 530.613953,359.053375 527.460938,363.394958 
	C527.014771,364.140045 526.874634,364.438965 526.433105,364.954224 
	C526.204285,365.537476 526.276733,365.904388 526.349182,366.271301 
	C526.796021,366.024231 527.242798,365.777191 527.871033,365.488953 
	C528.283752,365.318573 528.429321,365.125000 528.489136,364.867035 
	C537.547668,358.722382 546.848145,352.821594 551.676575,342.163300 
	C556.385925,342.636688 557.951294,345.510071 554.366699,349.120056 
	C546.655334,356.886169 538.453674,364.189941 530.153137,371.334930 
	C526.655518,374.345642 522.382263,376.449066 518.502991,379.027100 
	C517.566833,379.649231 516.536011,380.365906 515.987488,381.297424 
	C510.696838,390.282623 505.494476,399.319885 500.297272,408.359741 
	C500.096558,408.708832 500.203674,409.234863 500.088257,410.643616 
	C504.114319,406.737946 507.527374,403.355469 511.018616,400.055634 
	C517.541138,393.890717 524.091064,387.754425 530.664368,381.643646 
	C534.940552,377.668365 538.707581,379.976379 542.105713,382.948212 
	C545.362488,385.796448 547.472534,388.807343 545.076477,393.782684 
	C540.335754,403.626526 536.203430,413.768158 532.002869,423.862976 
	C531.244934,425.684479 531.364746,427.871246 531.079285,429.889343 
	C531.620178,430.250427 532.161072,430.611511 532.701904,430.972595 
	C536.104187,427.830017 539.919617,425.027863 542.837952,421.486481 
	C556.152771,405.328918 569.849304,389.411011 578.982788,370.287903 
	C579.697754,368.790985 580.817993,367.467438 581.399353,365.930695 
	C583.364014,360.737213 587.146973,360.630341 591.583679,362.025146 
	C598.431458,364.177917 598.832581,366.122131 595.095886,372.194458 
	C590.012329,380.455536 585.501892,389.069214 580.745667,397.531677 
	C581.129639,397.897583 581.513611,398.263489 581.897583,398.629395 
	C583.366089,397.169403 584.906799,395.774567 586.291748,394.239197 
	C598.318604,380.905884 610.284973,367.517883 622.362366,354.230591 
	C624.020264,352.406586 626.291260,351.155243 628.098694,349.448395 
	C632.156433,345.616486 636.479065,345.985657 640.878357,348.544189 
	C645.721069,351.360596 648.489929,355.476044 647.887756,361.300140 
	C646.670471,373.073029 642.387024,383.761902 636.685364,394.057404 
	C630.267151,405.646545 622.987854,416.458649 612.802124,425.135651 
	C607.310608,429.813782 601.149170,432.900604 594.054993,430.778351 
	C590.614685,429.749146 587.493042,426.719513 584.995728,423.911896 
	C583.926575,422.709900 584.816956,419.764893 585.437622,417.625061 
	C590.316711,422.658539 593.661011,422.711060 599.169739,417.695801 
	C610.158813,407.691193 618.305115,395.551117 624.862244,382.366608 
	C628.394775,375.263855 631.198914,367.791473 634.152832,360.414246 
	C634.786743,358.830963 634.648926,356.938751 634.866577,355.188843 
	C634.482117,354.870117 634.097717,354.551422 633.713257,354.232697 
	C630.805359,356.437775 627.616028,358.356567 625.034973,360.894104 
	C607.646790,377.989075 592.468140,396.962708 578.580872,416.945587 
	C570.806580,428.132172 563.656311,439.754486 556.323364,451.243408 
	C555.177185,453.039124 553.991943,455.120209 553.809387,457.157562 
	C553.398499,461.743103 550.651794,461.573151 547.463989,460.905121 
	C539.445740,459.224854 537.351440,454.963562 540.683838,447.542694 
	C544.018982,440.115723 547.219238,432.628143 550.680481,424.538055 
	C550.842468,423.292938 550.802612,422.676880 550.762695,422.060822 
	C550.298828,422.411041 549.835022,422.761230 549.371155,423.111420 
	C544.442810,428.499298 539.680420,434.052917 534.527039,439.216217 
	C531.154724,442.595062 527.189575,445.166107 522.065369,442.186127 
	C515.629150,438.443115 512.847229,433.290192 514.545532,427.030273 
	C516.757568,418.876831 519.353821,410.828156 521.734070,402.719482 
	C522.291504,400.820496 522.644958,398.861694 523.417297,396.459839 
	C523.772461,395.403015 523.802490,394.816803 523.832520,394.230560 
	C523.434998,394.275116 523.037415,394.319672 522.639893,394.364258 
z"/>
<path fill="#F4F4F4" opacity="1.000000" stroke="none" 
	d="
M790.643250,355.747284 
	C790.643250,355.747284 790.865356,355.663330 791.255859,355.466187 
	C791.866821,354.885620 792.087280,354.502197 792.307678,354.118774 
	C793.463196,354.206818 794.948669,353.862885 795.720886,354.452759 
	C800.906250,358.413757 800.964783,365.574432 795.677124,369.289948 
	C783.285400,377.997498 770.704895,386.436096 758.292969,395.115448 
	C754.661438,397.654877 751.340271,400.638123 748.023743,403.944092 
	C755.714905,402.682465 763.133667,403.112122 769.809143,406.735718 
	C776.799255,410.530121 780.775269,416.722046 781.058411,425.205078 
	C783.870728,425.205078 786.451355,425.205078 789.422302,425.205078 
	C779.661560,408.845886 792.532654,398.396362 799.925903,386.980927 
	C804.548950,379.842682 811.163208,373.892120 817.361389,367.902618 
	C824.549805,360.956116 831.044128,363.526123 837.293640,371.847870 
	C837.945984,372.716492 837.726257,374.239990 837.911133,375.459656 
	C836.753235,375.361908 835.580200,375.099152 834.440735,375.203217 
	C832.488525,375.381622 829.948120,375.106781 828.713318,376.208618 
	C818.560852,385.268188 810.129395,395.708801 804.831726,408.386932 
	C804.085999,410.171478 804.101501,412.274078 803.764648,414.229462 
	C804.256042,414.498474 804.747437,414.767456 805.238831,415.036438 
	C808.547363,411.699219 812.058533,408.537018 815.122681,404.988831 
	C821.759949,397.303070 828.338501,389.552887 834.597229,381.559875 
	C837.643311,377.669678 840.460571,378.827026 843.627991,380.797974 
	C846.934082,382.855286 849.699890,385.311584 847.662476,389.694855 
	C845.215820,394.958740 842.475586,400.085999 840.019531,405.345795 
	C839.229492,407.037720 838.937073,408.962036 838.045715,412.078094 
	C851.059937,408.024780 855.432251,396.679596 863.323975,388.791443 
	C863.999573,389.150146 864.711548,389.498230 865.392334,389.899261 
	C865.921448,390.210815 866.411743,390.588348 867.324402,391.214569 
	C862.189819,397.277008 857.510803,403.308258 852.261902,408.794250 
	C849.457947,411.724915 845.840637,414.011627 842.281494,416.049500 
	C838.369141,418.289703 834.382324,417.927246 830.627075,415.024414 
	C826.770691,412.043396 825.289612,408.418182 826.402771,403.645905 
	C826.804749,401.922394 826.842407,400.113922 827.179749,397.186462 
	C817.049805,408.584747 809.898254,421.391052 796.426575,428.120697 
	C797.672607,430.378998 798.962280,432.716309 800.640137,435.757263 
	C797.613098,435.083130 795.616821,434.352936 793.585266,434.236053 
	C785.185425,433.752808 778.497192,434.183075 773.532898,443.915131 
	C767.086670,456.552399 755.072815,464.272705 740.662659,466.885437 
	C733.806091,468.128601 726.973083,467.708160 721.099548,463.229675 
	C718.534363,461.273773 716.448425,458.941162 717.820374,455.319458 
	C718.331055,455.247101 718.796326,455.057922 718.907410,455.183075 
	C726.148560,463.343262 730.630554,462.052521 739.690613,457.299591 
	C748.275330,452.795990 755.371399,446.350372 761.320312,438.494843 
	C753.628113,435.354614 731.227112,445.551361 724.527710,455.057983 
	C721.206360,452.001862 722.337158,448.783539 724.835083,446.464447 
	C728.334717,443.215332 732.418396,440.584473 736.324951,437.790741 
	C737.571777,436.899078 739.049622,436.330383 740.421753,435.613892 
	C740.328918,435.094360 740.236084,434.574829 740.143188,434.055328 
	C734.494385,434.339691 728.829224,434.468018 723.212402,435.057220 
	C722.240417,435.159180 721.292542,437.119873 720.639343,438.380432 
	C713.644287,451.877808 702.990906,461.261627 688.586853,465.955353 
	C680.788086,468.496643 672.753662,468.447723 665.413269,463.968567 
	C661.518799,461.592133 660.460754,458.652069 662.983459,453.876617 
	C663.542969,455.078918 663.872925,456.477234 664.702637,457.448792 
	C667.922424,461.219177 672.107422,461.800262 676.529541,460.196655 
	C688.645081,455.803162 697.637939,447.391571 705.242310,437.100159 
	C691.540161,440.249725 677.172302,441.859314 667.780396,454.419128 
	C665.304688,451.316895 665.443115,448.306915 669.263184,445.089050 
	C672.925781,442.003906 676.865356,438.872955 681.224060,437.068909 
	C689.642578,433.584534 698.357056,430.723053 707.124939,428.219910 
	C710.653992,427.212372 712.059021,425.637695 712.343079,422.233582 
	C712.928955,415.214233 708.615173,409.493286 701.641113,408.307220 
	C694.806702,407.144928 688.251099,408.913452 683.691833,413.585632 
	C681.230774,411.643280 678.701172,409.646790 675.332947,406.988495 
	C672.985168,409.514008 670.476379,412.816833 667.370178,415.401733 
	C663.439331,418.672913 659.217651,421.711182 654.755737,424.192230 
	C650.922913,426.323425 647.363220,425.081696 644.863220,421.261017 
	C640.821472,415.084259 640.849426,408.455719 643.848450,402.193756 
	C648.363953,392.765289 653.604736,383.684052 658.542908,374.458191 
	C659.619995,372.445892 660.720764,370.446259 662.352844,367.442902 
	C665.879395,370.230286 669.413513,372.417603 672.031494,375.407196 
	C673.005249,376.519226 672.490112,379.883209 671.524109,381.575195 
	C668.063660,387.636475 664.006836,393.353546 660.394287,399.332977 
	C657.611816,403.938507 654.723328,408.594513 654.757141,414.908386 
	C663.942749,413.681580 670.491760,408.252563 674.314270,401.673462 
	C678.834412,393.893616 685.114441,388.630524 691.956299,383.791870 
	C703.224365,375.822906 714.948364,368.499054 726.461914,360.875671 
	C727.404907,360.251282 728.208557,359.416504 729.505249,358.345459 
	C731.624512,357.013916 733.315552,356.016449 735.006653,355.018982 
	C737.632446,351.201080 739.831726,354.206512 740.489685,356.086548 
	C742.397217,361.536865 746.517273,361.256805 750.596619,360.496826 
	C761.867920,358.396820 773.064575,355.897522 784.325867,353.739502 
	C786.139404,353.391937 788.133118,353.985077 789.653442,354.612701 
	C782.789246,357.685669 776.447021,360.709747 769.809265,362.791473 
	C760.544006,365.697174 751.504822,370.116486 741.268433,368.505066 
	C740.369690,368.363617 739.220215,369.392303 738.278320,370.015259 
	C729.817688,375.610962 721.266907,381.079865 712.963928,386.901703 
	C705.425659,392.187225 698.163635,397.866669 689.668335,404.201263 
	C712.939087,401.379150 723.374756,410.717163 724.379333,425.562775 
	C732.006531,425.348938 740.177124,424.417358 743.140015,434.014038 
	C749.935669,432.022461 756.233765,430.002991 762.626831,428.350555 
	C769.411316,426.596954 770.943726,422.075958 768.125061,415.470612 
	C764.021912,405.855377 746.663879,405.891571 740.706665,412.990021 
	C730.064819,408.164825 728.630127,400.762726 737.349365,393.267365 
	C744.264771,387.322662 751.520813,381.715210 759.010437,376.511902 
	C769.365356,369.317841 780.081665,362.643951 790.643250,355.747284 
M762.000000,437.500031 
	C761.799988,437.366699 761.599976,437.233368 761.400024,437.100006 
	C761.433350,437.399994 761.466675,437.700012 762.000000,437.500031 
z"/>
<path fill="#EBEBEB" opacity="1.000000" stroke="none" 
	d="
M734.601318,354.994324 
	C733.315552,356.016449 731.624512,357.013916 729.545959,357.985596 
	C723.011963,359.854553 716.891174,361.838165 710.711975,363.619446 
	C704.337708,365.456970 697.963074,367.365295 691.481140,368.733032 
	C686.931885,369.693024 682.469238,368.806641 679.259949,364.942261 
	C678.615234,364.165985 678.106873,362.660583 678.437012,361.865631 
	C678.760315,361.087189 680.296875,360.250183 681.193115,360.355560 
	C697.355347,362.256042 712.416748,356.797699 727.841248,353.684937 
	C729.793518,353.290955 732.069824,354.502106 734.601318,354.994324 
z"/>
<path fill="#090909" opacity="1.000000" stroke="none" 
	d="
M791.993286,354.232971 
	C792.087280,354.502197 791.866821,354.885620 791.312744,355.362000 
	C791.212402,355.085663 791.445618,354.716431 791.993286,354.232971 
z"/>
<path fill="#FFFCFC" opacity="1.000000" stroke="none" 
	d="
M313.613647,830.674194 
	C325.247833,818.768127 336.805908,806.786194 348.561676,795.001465 
	C352.166229,791.388000 358.729706,791.172668 362.966583,793.897095 
	C367.190369,796.613220 369.105377,801.841553 367.040161,807.092651 
	C363.760651,815.431274 359.729950,823.477905 356.540985,831.847656 
	C353.259583,840.460083 350.605743,849.311584 348.381195,858.349426 
	C356.061127,853.799805 361.798767,848.376526 363.955292,839.400452 
	C368.417572,820.827026 377.838898,804.873352 392.371887,792.385620 
	C403.868622,782.506897 413.480225,782.613647 425.737000,791.631714 
	C432.114410,785.278748 434.068604,785.002502 440.529541,789.540222 
	C445.879303,793.297607 446.469910,795.612305 443.759613,801.560425 
	C438.598083,812.887878 433.210510,824.124023 428.469208,835.625854 
	C426.417908,840.602173 424.870117,846.091431 427.797668,852.738159 
	C430.844635,849.973694 433.841766,847.729980 436.262604,844.979065 
	C449.597015,829.826477 457.134674,811.546814 463.974762,792.913269 
	C466.035645,787.299072 467.994324,781.644226 470.195312,776.085449 
	C472.485260,770.301819 476.329315,768.498840 482.142212,770.845947 
	C486.234497,772.498413 490.028442,774.889709 493.955292,776.950928 
	C484.107513,793.331177 492.703796,806.959839 498.488068,821.204895 
	C504.416962,812.096375 514.049561,805.704956 513.657532,793.110901 
	C513.089294,774.854065 531.120605,761.414673 547.601257,767.081360 
	C556.210510,770.041504 560.560486,776.454712 557.978577,783.048462 
	C557.142822,785.182739 555.239929,787.182312 553.323914,788.532043 
	C551.342346,789.928040 549.642578,789.263489 549.345825,786.301208 
	C549.177612,784.622620 548.348816,781.687134 547.626953,781.627625 
	C545.154968,781.423767 542.161865,781.547058 540.160828,782.806335 
	C535.179382,785.941284 533.696289,793.338013 536.602173,799.368286 
	C539.773315,805.949036 543.532043,812.249390 546.634399,818.859802 
	C549.159668,824.240662 551.874329,829.726685 553.140869,835.467041 
	C556.599121,851.140137 543.888794,865.779846 527.822876,865.092834 
	C519.821838,864.750610 512.348999,863.031616 507.100220,856.006287 
	C504.577881,852.630249 505.400421,849.839783 507.620728,847.010071 
	C509.797424,844.235901 512.511658,844.674072 515.268982,846.035583 
	C516.012878,846.402893 516.708618,846.867004 517.431213,847.278198 
	C523.947693,850.986816 530.655701,847.600037 530.840454,840.074097 
	C530.917725,836.925476 529.831970,833.484985 528.395813,830.617554 
	C525.426514,824.689270 521.867676,819.056274 518.140686,812.589355 
	C513.222595,818.866455 508.455627,824.725586 504.020172,830.825684 
	C503.250885,831.883728 503.697296,833.984619 503.897522,835.563843 
	C505.970093,851.909668 489.319489,870.977905 472.743439,870.789673 
	C462.766876,870.676453 456.157440,864.573914 451.152222,856.701965 
	C450.307861,855.373962 450.975555,852.499634 451.856995,850.817932 
	C452.808075,849.003479 454.799347,847.716370 456.392761,846.260437 
	C459.547180,843.378479 462.206635,843.159180 465.050018,847.056641 
	C467.333160,850.186096 470.553741,852.492004 474.927155,851.435730 
	C480.724365,850.035767 483.110352,846.066772 481.441071,839.572693 
	C478.649811,828.713440 475.500702,817.946167 472.435394,806.899414 
	C468.524384,814.443787 464.692200,821.714783 460.970245,829.041748 
	C454.019287,842.725220 444.512177,854.384155 433.259888,864.744263 
	C424.663940,872.658691 414.590546,872.046875 407.345032,862.906311 
	C406.338745,861.636841 405.350342,860.353271 404.667328,859.478149 
	C399.402771,863.570679 394.637634,868.036194 389.147156,871.270203 
	C385.602844,873.357849 380.996613,874.532471 376.864380,874.537415 
	C369.392029,874.546387 364.224762,870.691895 363.510468,861.297485 
	C359.390228,865.833130 356.270050,869.334534 353.071625,872.762878 
	C351.255829,874.709290 349.387543,876.620361 347.409119,878.398499 
	C343.798981,881.643127 339.685272,883.050598 335.005035,880.923157 
	C330.464874,878.859375 327.666229,874.957947 328.147034,870.230103 
	C329.115906,860.703003 330.556458,851.170837 332.644989,841.829224 
	C334.035706,835.608887 336.884277,829.714478 339.636169,822.145325 
	C337.191406,823.393005 335.742279,823.712402 334.938599,824.609802 
	C328.973267,831.270447 322.111084,837.415344 317.489197,844.927307 
	C309.761627,857.486938 303.368530,870.880859 296.689392,884.063232 
	C294.943604,887.508850 292.888428,888.871216 289.226746,887.813354 
	C288.108185,887.490234 286.966949,887.246399 285.842896,886.941284 
	C278.262177,884.884094 277.605347,884.011841 277.837128,874.743774 
	C274.934265,877.577393 272.810699,879.660583 270.675842,881.732178 
	C266.405579,885.875916 262.607025,890.723816 257.747223,893.992737 
	C249.693710,899.409729 237.617569,892.786438 237.123566,883.024231 
	C236.923935,879.079590 236.951828,874.844849 238.150055,871.155884 
	C243.530792,854.590088 249.128632,838.084045 255.162109,821.746277 
	C257.561066,815.250305 259.672974,814.681091 266.409149,815.718872 
	C279.345978,817.711914 279.155548,817.641968 274.647644,829.903809 
	C269.434265,844.084473 264.588867,858.400635 259.621307,872.671143 
	C259.197784,873.887756 259.057190,875.202820 258.427429,878.141785 
	C261.117645,876.174194 262.919983,875.245728 264.215302,873.847534 
	C275.752625,861.395386 284.818481,847.395935 290.780182,831.417419 
	C301.582855,802.464294 313.330200,773.920471 327.666565,746.491943 
	C331.953217,738.290771 344.020294,732.729309 353.945526,735.190063 
	C340.207001,766.487793 326.501038,797.711365 312.464355,829.559326 
	C312.076111,830.774231 312.018585,831.364685 311.961060,831.955139 
	C312.511902,831.528137 313.062775,831.101135 313.613647,830.674194 
M403.205109,841.657166 
	C408.495819,830.946838 413.903961,820.291382 418.955688,809.469482 
	C419.750488,807.766785 419.679871,804.041138 418.702637,803.464050 
	C416.608459,802.227661 413.133911,801.348694 411.177582,802.294556 
	C407.704834,803.973511 404.495575,806.740234 401.963287,809.720764 
	C394.138367,818.930359 388.659454,829.565186 384.903717,841.007324 
	C383.843170,844.238342 383.527466,847.876221 383.661469,851.296509 
	C383.836243,855.757202 385.790375,856.737976 389.435852,854.003113 
	C394.177673,850.445801 398.431030,846.237305 403.205109,841.657166 
z"/>
<path fill="#FFFBFB" opacity="1.000000" stroke="none" 
	d="
M590.984863,782.969666 
	C615.204773,716.087585 662.075378,675.757507 731.979858,665.752014 
	C810.926880,654.452271 900.849182,698.103699 921.535278,802.099487 
	C934.698364,868.274963 910.229919,921.896729 858.399841,963.769958 
	C857.366943,964.604431 856.215942,965.293396 855.114929,966.042847 
	C854.159119,966.693604 853.196106,967.333801 851.936218,968.180298 
	C852.781067,969.948364 853.608521,971.679993 854.601318,973.757690 
	C851.641541,975.771973 848.653320,977.805664 845.330078,980.067383 
	C841.131409,974.421814 837.071838,968.963135 832.808105,963.230042 
	C837.070496,960.525635 841.308472,957.963928 845.417480,955.209778 
	C881.036804,931.334167 900.235962,897.493469 907.151978,855.597534 
	C913.704285,815.904602 903.021729,780.744873 882.443420,747.259399 
	C851.024414,696.133484 803.666992,674.722656 746.097107,677.750061 
	C698.316345,680.262756 656.579895,699.068481 627.787598,739.934631 
	C612.197388,762.062500 601.928589,786.461243 598.821167,813.460632 
	C590.949585,881.853455 629.848877,949.377869 692.782532,977.225830 
	C734.559143,995.711914 776.684753,997.923096 819.275879,980.129517 
	C821.576538,979.168396 823.825623,978.071045 826.045715,976.933533 
	C828.263184,975.797424 830.413940,974.531189 833.136963,973.020752 
	C835.643494,976.233398 838.236816,979.557373 841.055542,983.170227 
	C827.892334,992.317627 813.598816,997.981201 798.434265,1001.395264 
	C713.530212,1020.509705 638.975220,976.904724 603.719604,915.087708 
	C591.816345,894.216614 586.835022,871.090698 584.061890,847.471558 
	C581.495300,825.613037 584.770386,804.320679 590.984863,782.969666 
z"/>
<path fill="#FFFCFC" opacity="1.000000" stroke="none" 
	d="
M171.267792,793.216248 
	C162.512634,797.317139 154.079575,801.203247 145.738022,805.276672 
	C141.474518,807.358643 138.781860,806.170410 137.779190,801.397705 
	C135.750992,791.743530 139.764160,783.001221 149.726349,778.639404 
	C160.203125,774.052185 170.969330,769.763550 182.012802,766.903442 
	C211.132263,759.362000 240.427689,752.476807 269.763214,745.815491 
	C274.760986,744.680664 280.349701,745.587463 285.575775,746.253967 
	C288.216187,746.590576 291.003693,748.069092 293.120850,749.778870 
	C299.255066,754.732788 298.613647,759.237061 291.145996,761.099792 
	C277.770752,764.436096 264.175690,766.879639 250.734436,769.966125 
	C239.878265,772.458984 229.091110,775.266113 218.330032,778.145569 
	C216.573074,778.615723 214.292007,779.822327 213.640030,781.300293 
	C208.429047,793.113098 203.552032,805.073181 198.072678,818.184692 
	C207.642624,816.383240 216.007614,814.781494 224.383575,813.239319 
	C233.238724,811.608826 240.013351,814.313782 243.831833,820.931946 
	C246.257111,825.135376 245.651001,826.714478 241.012573,828.099182 
	C226.514679,832.427124 212.032837,836.811279 197.497971,841.011597 
	C192.980759,842.317017 190.104782,844.547241 188.804596,849.423889 
	C182.686798,872.369812 176.227310,895.224487 169.958740,918.130615 
	C168.150848,924.736877 167.553986,925.041870 161.725418,921.106079 
	C158.830231,919.151001 156.104553,916.934631 153.147537,915.083557 
	C147.812317,911.743774 146.608307,907.156799 148.221924,901.308411 
	C152.989700,884.028137 157.637543,866.714783 162.461136,848.939575 
	C154.216187,848.940735 152.439926,841.732056 149.448074,834.810852 
	C155.398804,832.518677 161.316589,830.496338 166.982117,827.919373 
	C169.005737,826.998962 171.201157,825.040344 171.980637,823.035583 
	C176.306015,811.911072 180.219574,800.626465 184.703705,788.206848 
	C179.813217,790.029114 175.720520,791.554077 171.267792,793.216248 
z"/>
<path fill="#FFFAFA" opacity="1.000000" stroke="none" 
	d="
M704.841797,813.801697 
	C706.456665,816.131104 707.711670,818.268372 709.126526,820.677856 
	C710.942444,819.051392 713.238098,816.972900 715.558350,814.922363 
	C718.908752,811.961365 722.546021,810.160339 726.837891,812.935669 
	C730.945190,815.591553 731.554504,819.551147 730.320435,823.926636 
	C728.695984,829.685913 726.901672,835.397217 725.261292,841.152222 
	C724.685791,843.171631 724.349670,845.259338 724.447449,847.666626 
	C730.349487,844.024292 736.309753,840.479919 738.976624,833.830688 
	C743.567444,822.384460 751.417419,814.637756 763.378113,811.513733 
	C771.188538,809.473694 778.435913,813.038940 781.111572,819.992859 
	C780.222900,819.992859 779.473816,820.096985 778.762329,819.977295 
	C765.867554,817.807129 751.617615,829.092712 750.921814,842.174866 
	C750.841675,843.682556 751.597351,845.234802 751.965576,846.766357 
	C753.482605,846.326294 755.381531,846.316956 756.449280,845.370239 
	C760.668762,841.628418 764.703918,837.667542 768.655273,833.638611 
	C771.098511,831.147461 773.240784,828.363342 775.567200,825.754456 
	C777.638428,823.431763 780.471802,822.638306 782.522461,824.928528 
	C783.797913,826.353088 784.162720,829.342590 783.724182,831.367126 
	C783.144409,834.044006 781.241333,836.407349 780.166626,839.012573 
	C779.318604,841.068115 778.862549,843.285400 778.938293,845.770569 
	C791.601318,835.848694 795.928955,820.837402 803.525452,806.861206 
	C801.530823,806.689331 800.331482,806.518372 799.129089,806.493835 
	C792.970581,806.367981 786.797363,806.487061 780.659668,806.071228 
	C778.376953,805.916504 774.601318,806.393127 775.059875,802.240540 
	C775.426697,798.917603 777.426147,797.130981 781.206482,797.152710 
	C788.698364,797.195801 796.193054,796.654175 803.685913,796.670044 
	C806.826843,796.676758 808.483398,795.653503 809.548706,792.657471 
	C811.104553,788.282227 813.276062,784.129333 814.934143,779.785828 
	C816.264038,776.302063 817.886353,774.463928 821.974792,776.247437 
	C827.949768,778.853943 830.038818,781.430054 828.427002,785.574036 
	C827.119385,788.935669 825.471069,792.164795 823.939758,795.527527 
	C830.354980,795.527527 836.443909,795.403870 842.521301,795.613770 
	C844.053894,795.666687 845.549622,796.786072 847.062378,797.415405 
	C845.915955,798.638733 844.960571,800.611267 843.591309,800.960449 
	C836.206726,802.843506 828.705994,804.265198 821.278564,805.989075 
	C819.653320,806.366272 817.233032,806.934631 816.753601,808.076233 
	C811.558899,820.444336 806.143372,832.768433 801.958008,845.489441 
	C800.101685,851.131897 800.905151,857.649475 800.502197,863.755493 
	C790.806946,862.449707 790.267761,861.678345 788.643127,846.039185 
	C785.267456,849.061523 782.029968,851.814636 778.964355,854.747437 
	C776.119934,857.468628 772.524902,859.829468 769.319458,857.242004 
	C767.392883,855.686890 767.589600,851.492554 766.854919,848.478760 
	C766.743225,848.020752 766.755920,847.532349 766.669861,846.620972 
	C763.310791,849.212280 760.240967,851.700195 757.049133,854.020264 
	C747.446045,861.000366 739.191101,856.595825 737.688843,847.475098 
	C737.617920,847.044922 737.200623,846.671814 736.308472,845.278870 
	C733.191040,848.723755 730.435913,852.026794 727.402527,855.050781 
	C724.075317,858.367798 720.070129,859.736206 715.566040,857.532837 
	C711.334473,855.462952 710.189758,851.473267 710.947083,847.375549 
	C711.935364,842.028137 713.749695,836.831360 715.247070,831.580811 
	C715.952942,829.105530 716.748535,826.655884 716.721069,823.813354 
	C705.750366,831.741577 701.505676,844.072998 695.762207,855.309265 
	C686.428040,852.192078 684.732117,848.829285 688.106873,840.131348 
	C690.005493,835.237976 692.090759,830.416931 694.091919,825.563354 
	C693.614441,825.137878 693.137024,824.712341 692.659546,824.286865 
	C690.442261,826.139526 687.516418,827.575623 686.137634,829.921204 
	C681.608032,837.627014 677.730286,845.713074 673.385315,853.532654 
	C672.428894,855.253967 670.512756,857.769226 669.154236,857.698425 
	C664.527771,857.457336 660.801331,853.531860 661.648193,850.223633 
	C663.336487,843.628967 665.359863,837.112976 667.446411,830.629395 
	C669.125366,825.412537 671.146362,820.306824 672.932617,815.123169 
	C674.671997,810.075439 676.227783,809.229492 680.305359,812.401489 
	C682.913513,814.430481 684.675964,817.546448 686.970276,820.362549 
	C691.729004,816.745422 696.195923,810.224060 704.841797,813.801697 
z"/>
<path fill="#FFFBFB" opacity="1.000000" stroke="none" 
	d="
M274.686707,930.643921 
	C259.084381,936.569336 243.849533,942.332947 228.629501,948.135559 
	C222.035278,950.649536 217.917007,949.587891 216.045685,944.785278 
	C213.787903,938.990906 216.465683,934.321838 223.230713,931.901062 
	C267.980560,915.887451 314.013062,904.866516 360.646484,896.003479 
	C405.819305,887.418152 451.420807,884.593933 497.266418,885.172241 
	C507.669556,885.303406 518.067322,887.412598 528.414856,888.963074 
	C530.280884,889.242676 531.889587,891.239502 533.617126,892.443481 
	C531.988953,894.536743 530.764282,897.604248 528.634460,898.486267 
	C525.712830,899.696289 522.108643,899.405212 518.790283,899.486450 
	C495.164062,900.064575 471.480682,899.727722 447.919678,901.271667 
	C389.343109,905.110107 331.612457,914.443665 274.686707,930.643921 
z"/>
<path fill="#FFFAFA" opacity="1.000000" stroke="none" 
	d="
M864.643311,774.871216 
	C869.815308,772.177002 872.015686,776.872009 874.871582,778.979858 
	C875.914856,779.750000 875.505615,783.543579 874.724915,785.556946 
	C869.926331,797.932739 864.801025,810.181396 859.872375,822.507507 
	C859.219299,824.140930 859.066101,825.974060 858.352539,829.202637 
	C862.429993,825.365356 865.200562,822.315186 868.422241,819.855896 
	C871.413696,817.572327 874.676514,815.263977 878.194824,814.135681 
	C884.111877,812.238281 888.930725,815.869202 888.180237,821.996704 
	C887.424927,828.163086 885.222717,834.165466 883.496582,840.194458 
	C882.520142,843.604858 881.226196,846.924377 880.075317,850.284790 
	C880.538330,850.547546 881.001404,850.810242 881.464417,851.072998 
	C882.814819,849.572815 884.298828,848.170898 885.489014,846.552917 
	C888.346069,842.668945 890.898132,838.546448 893.949158,834.828613 
	C894.784668,833.810547 896.948975,833.882935 898.503479,833.454895 
	C898.676758,834.898010 899.393433,836.546997 898.937195,837.751709 
	C895.326904,847.284119 888.790161,854.608398 880.137878,859.647583 
	C877.636780,861.104248 873.047607,861.053162 870.496033,859.682312 
	C868.489441,858.604431 866.989197,854.292419 867.308899,851.666016 
	C867.920898,846.639709 869.977966,841.787476 871.454590,836.868835 
	C872.333923,833.939697 873.249939,831.021667 874.149536,828.098633 
	C873.617920,827.735901 873.086304,827.373108 872.554688,827.010315 
	C869.436157,830.195984 866.024170,833.148682 863.267334,836.621521 
	C859.031555,841.957275 855.268188,847.666626 851.260315,853.185425 
	C849.209595,856.009460 846.985840,859.835449 843.070007,858.004883 
	C840.638916,856.868408 839.344910,853.299500 837.143066,850.276733 
	C835.886902,851.186035 833.659424,853.179932 831.099426,854.554565 
	C827.919006,856.262451 824.582825,858.048523 821.101990,858.751526 
	C813.986816,860.188354 808.335510,855.779846 807.188843,848.608337 
	C805.070007,835.356812 817.131958,817.746826 830.181641,815.039917 
	C838.413757,813.332214 843.782349,818.199463 841.670898,825.551575 
	C840.584595,829.334106 838.098022,831.308044 833.518860,830.822998 
	C833.679382,829.534058 833.935303,828.468384 833.915833,827.407776 
	C833.885498,825.757141 833.667969,824.110046 833.529846,822.461426 
	C831.948547,823.109009 830.055115,823.400208 828.839294,824.465088 
	C823.097961,829.493347 820.957947,836.290405 820.490295,843.606201 
	C820.199341,848.157227 823.789612,850.847595 827.674561,848.704468 
	C835.607483,844.328369 843.431641,840.134888 845.526978,829.526123 
	C849.267639,810.587402 854.662231,792.056702 864.643311,774.871216 
z"/>
<path fill="#FFFBFB" opacity="1.000000" stroke="none" 
	d="
M652.733582,834.340454 
	C661.430664,847.277039 657.730591,855.987122 644.265076,863.286377 
	C635.833496,867.856873 626.907898,867.178223 618.073914,864.231873 
	C616.683594,863.768188 614.940796,863.159119 614.250183,862.059082 
	C612.951294,859.989990 612.301147,857.513672 611.381287,855.206665 
	C613.365295,855.102295 615.457520,854.539612 617.313416,854.977783 
	C623.408081,856.416870 629.233765,856.076660 634.754517,853.089233 
	C640.483765,849.989014 641.784302,846.194397 638.310974,840.776611 
	C635.923889,837.053223 632.874146,833.584717 629.539246,830.666748 
	C609.378357,813.026550 612.484192,785.706177 636.374817,772.836304 
	C644.757996,768.320312 653.615479,765.847412 663.294617,768.041504 
	C672.209229,770.062256 676.720337,775.644348 676.417969,785.075073 
	C669.335327,781.356445 662.032104,779.993286 654.290771,781.984985 
	C641.369751,785.309387 633.629150,794.708984 633.801086,806.795959 
	C633.887695,812.885498 636.770935,817.580750 640.782837,821.789001 
	C644.686157,825.883179 648.607483,829.960144 652.733582,834.340454 
z"/>
<path fill="#FFFBFB" opacity="1.000000" stroke="none" 
	d="
M272.854919,784.643982 
	C274.999817,784.166626 276.782623,783.603271 278.579865,783.552551 
	C285.583191,783.354980 290.211395,790.101624 287.454620,796.507080 
	C285.241364,801.649719 281.552094,805.268127 275.952148,806.608643 
	C271.286377,807.725464 267.343414,806.508667 264.581635,802.525024 
	C261.761169,798.456787 262.175598,794.197876 265.279449,790.605042 
	C267.266296,788.305176 270.064819,786.706482 272.854919,784.643982 
z"/>
<path fill="#FEF3F4" opacity="1.000000" stroke="none" 
	d="
M815.043884,886.042786 
	C819.742981,878.361816 827.166382,881.643250 834.375122,881.378540 
	C834.375122,888.936096 834.475098,896.481384 834.333740,904.022095 
	C834.260742,907.913940 831.602051,910.547974 828.145630,910.674255 
	C824.395386,910.811401 820.568909,909.476440 816.832703,908.552734 
	C816.400757,908.445923 815.921082,906.683838 816.213806,906.020081 
	C816.500000,905.371094 817.758728,904.787354 818.568054,904.815735 
	C819.856262,904.860962 821.110718,905.512756 822.406250,905.775757 
	C825.980652,906.501160 828.336487,905.581848 828.170715,902.383545 
	C823.834595,900.722961 818.919189,900.184753 816.397827,897.444092 
	C814.425354,895.300049 815.421021,890.425354 815.086853,886.376343 
	C815.075867,885.988708 815.043884,886.042786 815.043884,886.042786 
M821.791626,894.787476 
	C823.605774,895.425415 825.419983,896.063293 827.661621,896.851501 
	C827.938782,893.837463 828.466553,891.832336 828.185791,889.947754 
	C827.968201,888.487000 826.739868,887.176880 825.960754,885.799866 
	C824.452209,886.763306 822.365784,887.404419 821.597961,888.781067 
	C820.834900,890.148987 821.397766,892.256470 821.791626,894.787476 
z"/>
<path fill="#FFF9F9" opacity="1.000000" stroke="none" 
	d="
M767.210327,880.334717 
	C774.810181,880.706726 778.702393,885.146729 777.869324,891.911255 
	C777.083862,898.289612 772.033875,901.983948 765.346069,900.993835 
	C763.063782,900.655945 760.809204,900.131165 757.856506,899.559021 
	C757.856506,890.668640 757.781677,881.399048 757.998596,872.136353 
	C758.015930,871.395142 760.061707,870.124939 761.136658,870.153564 
	C762.132751,870.180115 763.804260,871.521118 763.932007,872.453979 
	C764.308350,875.201782 764.066284,878.034241 764.066284,881.121582 
	C765.247070,880.840698 766.031616,880.654114 767.210327,880.334717 
M764.032593,891.572693 
	C764.109436,892.992126 764.186340,894.411560 764.256653,895.709839 
	C768.656616,896.908569 771.342285,895.640930 771.630920,891.385681 
	C771.828552,888.472839 770.929199,885.436401 767.314209,885.331848 
	C763.749084,885.228760 763.920044,888.145081 764.032593,891.572693 
z"/>
<path fill="#FEF2F3" opacity="1.000000" stroke="none" 
	d="
M853.530396,896.507324 
	C853.620728,897.924194 853.805115,899.581665 853.132141,900.079102 
	C849.643982,902.656860 842.603760,901.806152 839.107483,898.656494 
	C835.626099,895.520325 835.099731,889.965088 837.853516,885.422302 
	C840.474609,881.098145 845.100708,879.351196 849.847900,880.807007 
	C853.323059,881.872864 855.104431,884.171509 855.062622,887.785156 
	C855.016602,891.762695 851.909241,891.966675 849.107056,892.341125 
	C847.180054,892.598694 845.215698,892.577209 843.018616,892.693604 
	C843.268860,896.505005 845.342163,897.295837 848.406494,896.830200 
	C850.008240,896.586792 851.621094,896.416199 853.530396,896.507324 
z"/>
<path fill="#FEF7F7" opacity="1.000000" stroke="none" 
	d="
M780.160828,888.082153 
	C780.159058,886.289917 779.767090,884.783386 780.261169,883.670105 
	C780.802063,882.451416 782.089905,880.912476 783.186707,880.797607 
	C784.071228,880.704956 785.814209,882.403259 786.016418,883.517517 
	C786.455688,885.937744 786.068359,888.496094 786.174072,890.991394 
	C786.341248,894.935425 786.832947,895.328674 791.987366,895.759583 
	C791.987366,892.460449 792.251648,889.168396 791.926392,885.935791 
	C791.420349,880.907166 793.868408,880.272278 798.386108,881.412537 
	C798.386108,886.359741 798.497925,891.330078 798.292786,896.287354 
	C798.251343,897.290649 797.192444,898.834106 796.290833,899.110046 
	C793.632141,899.923950 790.775940,900.806763 788.071289,900.615356 
	C781.349121,900.139404 780.164917,898.054016 780.160828,888.082153 
z"/>
<path fill="#FEF5F5" opacity="1.000000" stroke="none" 
	d="
M815.104004,885.974609 
	C808.201599,885.187866 806.590759,886.745728 807.189331,893.566467 
	C807.359375,895.503967 807.409424,897.452026 807.534790,899.770264 
	C805.373596,899.770264 803.660889,899.770264 801.104065,899.770264 
	C801.104065,894.317810 801.015564,889.037048 801.190796,883.765076 
	C801.220276,882.879578 802.293152,881.395386 803.052002,881.278442 
	C806.118958,880.805908 809.268555,880.463684 812.355774,880.637573 
	C815.641235,880.822632 815.137878,883.220764 814.726929,885.741882 
	C815.043884,886.042786 815.075867,885.988708 815.104004,885.974609 
z"/>
<path fill="#FEF1F2" opacity="1.000000" stroke="none" 
	d="
M867.906677,880.978149 
	C871.020813,882.702820 870.668457,885.253113 868.083191,885.587769 
	C861.509521,886.438782 862.919373,890.818176 863.116394,894.847351 
	C863.393005,900.504578 862.961975,900.958435 857.362976,900.348633 
	C857.019531,895.323914 856.531433,890.251648 856.376221,885.169189 
	C856.276367,881.899902 857.499023,880.253479 861.349060,881.503906 
	C863.154724,882.090393 865.444458,881.186462 867.906677,880.978149 
z"/>
<path fill="#010000" opacity="1.000000" stroke="none" 
	d="
M285.269348,396.598236 
	C285.720856,396.986053 285.722473,397.484253 285.724091,397.982452 
	C285.315826,397.890991 284.907532,397.799500 284.499268,397.708038 
	C284.606018,397.374908 284.712738,397.041748 285.269348,396.598236 
z"/>
<path fill="#010000" opacity="1.000000" stroke="none" 
	d="
M293.669617,398.527954 
	C293.653687,397.748505 293.920532,397.305695 294.672424,396.988708 
	C295.330078,397.244446 295.502625,397.374451 295.675171,397.504425 
	C295.451202,398.035217 295.227234,398.566010 294.787811,399.292480 
	C294.365723,399.280334 294.159058,399.072449 293.669617,398.527954 
z"/>
<path fill="#010000" opacity="1.000000" stroke="none" 
	d="
M252.034744,400.052063 
	C251.622879,400.472107 250.967834,400.659027 250.312805,400.845947 
	C250.464966,400.475006 250.617111,400.104095 251.028900,399.551910 
	C251.456207,399.520081 251.623901,399.669495 252.034744,400.052063 
z"/>
<path fill="#010000" opacity="1.000000" stroke="none" 
	d="
M270.872742,387.828247 
	C271.072144,387.708282 271.550049,387.833252 271.894287,388.226959 
	C271.557526,388.354858 271.354340,388.214020 270.872742,387.828247 
z"/>
<path fill="#010000" opacity="1.000000" stroke="none" 
	d="
M294.918030,396.896118 
	C295.024200,396.500732 295.369904,396.323700 295.715607,396.146667 
	C295.802612,396.428284 295.889648,396.709930 295.825928,397.247986 
	C295.502625,397.374451 295.330078,397.244446 294.918030,396.896118 
z"/>
<path fill="#010000" opacity="1.000000" stroke="none" 
	d="
M396.750000,407.750000 
	C396.466644,407.700012 396.433319,407.399994 396.399963,407.100006 
	C396.599976,407.233337 396.799988,407.366669 396.750000,407.750000 
z"/>
<path fill="#010000" opacity="1.000000" stroke="none" 
	d="
M522.714783,394.830200 
	C523.037415,394.319672 523.434998,394.275116 523.832520,394.230560 
	C523.802490,394.816803 523.772461,395.403015 523.456177,396.074646 
	C523.043152,395.872101 522.916382,395.584137 522.714783,394.830200 
z"/>
<path fill="#010000" opacity="1.000000" stroke="none" 
	d="
M549.639587,423.456787 
	C549.835022,422.761230 550.298828,422.411041 550.762695,422.060822 
	C550.802612,422.676880 550.842468,423.292938 550.690674,424.178162 
	C550.302002,424.232269 550.104980,424.017242 549.639587,423.456787 
z"/>
<path fill="#010000" opacity="1.000000" stroke="none" 
	d="
M527.689636,365.530151 
	C527.242798,365.777191 526.796021,366.024231 526.349182,366.271301 
	C526.276733,365.904388 526.204285,365.537476 526.666870,365.158386 
	C527.364502,365.274200 527.527100,365.402191 527.689636,365.530151 
z"/>
<path fill="#010000" opacity="1.000000" stroke="none" 
	d="
M526.968140,364.942078 
	C526.874634,364.438965 527.014771,364.140045 527.383423,363.727081 
	C527.768555,363.814758 527.925110,364.016479 528.285400,364.542603 
	C528.429321,365.125000 528.283752,365.318573 527.871033,365.488953 
	C527.527100,365.402191 527.364502,365.274200 526.968140,364.942078 
z"/>
<path fill="#090909" opacity="1.000000" stroke="none" 
	d="
M790.498535,355.539795 
	C780.081665,362.643951 769.365356,369.317841 759.010437,376.511902 
	C751.520813,381.715210 744.264771,387.322662 737.349365,393.267365 
	C728.630127,400.762726 730.064819,408.164825 740.706665,412.990021 
	C746.663879,405.891571 764.021912,405.855377 768.125061,415.470612 
	C770.943726,422.075958 769.411316,426.596954 762.626831,428.350555 
	C756.233765,430.002991 749.935669,432.022461 743.140015,434.014038 
	C740.177124,424.417358 732.006531,425.348938 724.379333,425.562775 
	C723.374756,410.717163 712.939087,401.379150 689.668335,404.201263 
	C698.163635,397.866669 705.425659,392.187225 712.963928,386.901703 
	C721.266907,381.079865 729.817688,375.610962 738.278320,370.015259 
	C739.220215,369.392303 740.369690,368.363617 741.268433,368.505066 
	C751.504822,370.116486 760.544006,365.697174 769.809265,362.791473 
	C776.447021,360.709747 782.789246,357.685669 789.623901,355.034363 
	C790.107544,355.101898 790.230713,355.217133 790.498535,355.539795 
z"/>
<path fill="#010000" opacity="1.000000" stroke="none" 
	d="
M761.750000,437.750000 
	C761.466675,437.700012 761.433350,437.399994 761.400024,437.100037 
	C761.599976,437.233368 761.799988,437.366699 761.750000,437.750000 
z"/>
<path fill="#ED1F27" opacity="1.000000" stroke="none" 
	d="
M403.049866,841.983154 
	C398.431030,846.237305 394.177673,850.445801 389.435852,854.003113 
	C385.790375,856.737976 383.836243,855.757202 383.661469,851.296509 
	C383.527466,847.876221 383.843170,844.238342 384.903717,841.007324 
	C388.659454,829.565186 394.138367,818.930359 401.963287,809.720764 
	C404.495575,806.740234 407.704834,803.973511 411.177582,802.294556 
	C413.133911,801.348694 416.608459,802.227661 418.702637,803.464050 
	C419.679871,804.041138 419.750488,807.766785 418.955688,809.469482 
	C413.903961,820.291382 408.495819,830.946838 403.049866,841.983154 
z"/>
<path fill="#ED1D25" opacity="1.000000" stroke="none" 
	d="
M313.367310,830.409485 
	C313.062775,831.101135 312.511902,831.528137 311.961060,831.955139 
	C312.018585,831.364685 312.076111,830.774231 312.370728,829.909485 
	C312.778870,829.805115 312.949890,829.974976 313.367310,830.409485 
z"/>
<path fill="#EE242C" opacity="1.000000" stroke="none" 
	d="
M821.585388,894.413574 
	C821.397766,892.256470 820.834900,890.148987 821.597961,888.781067 
	C822.365784,887.404419 824.452209,886.763306 825.960754,885.799866 
	C826.739868,887.176880 827.968201,888.487000 828.185791,889.947754 
	C828.466553,891.832336 827.938782,893.837463 827.661621,896.851501 
	C825.419983,896.063293 823.605774,895.425415 821.585388,894.413574 
z"/>
<path fill="#EE2D34" opacity="1.000000" stroke="none" 
	d="
M764.032227,891.130859 
	C763.920044,888.145081 763.749084,885.228760 767.314209,885.331848 
	C770.929199,885.436401 771.828552,888.472839 771.630920,891.385681 
	C771.342285,895.640930 768.656616,896.908569 764.256653,895.709839 
	C764.186340,894.411560 764.109436,892.992126 764.032227,891.130859 
z"/>
</svg>